<svg version="1.1" xmlns="http://www.w3.org/2000/svg" viewBox="0 0 2883.23828125 1602.0872705233223" width="2883.23828125" height="1602.0872705233223">
  <!-- svg-source:excalidraw -->
  
  <defs>
    <style class="style-fonts">
      @font-face {
        font-family: "Virgil";
        src: url("https://excalidraw.com/Virgil.woff2");
      }
      @font-face {
        font-family: "Cascadia";
        src: url("https://excalidraw.com/Cascadia.woff2");
      }
    </style>
  </defs>
  <rect x="0" y="0" width="2883.23828125" height="1602.0872705233223" fill="#ffffff"></rect><g stroke-linecap="round" transform="translate(729.23046875 157.9547119140625) rotate(0 193.888671875 312.912109375)"><path d="M32 0 M32 0 C126.88 0.04, 222.46 2.56, 355.78 0 M32 0 C151.24 -1.91, 270.95 -1.67, 355.78 0 M355.78 0 C375.93 0.28, 389.21 9.4, 387.78 32 M355.78 0 C376.82 -0.74, 389.33 10.95, 387.78 32 M387.78 32 C389.72 181.3, 389.9 331.29, 387.78 593.82 M387.78 32 C387.75 217.24, 387.3 402.4, 387.78 593.82 M387.78 593.82 C387.63 615.28, 376.23 623.9, 355.78 625.82 M387.78 593.82 C389.29 613.67, 378.85 627.79, 355.78 625.82 M355.78 625.82 C258.25 627.49, 160.86 628.28, 32 625.82 M355.78 625.82 C246.29 624.6, 137.49 623.99, 32 625.82 M32 625.82 C12.07 624.96, 0.4 615.4, 0 593.82 M32 625.82 C8.81 625.9, -0.93 613.61, 0 593.82 M0 593.82 C2.13 434.55, 1.56 275.24, 0 32 M0 593.82 C-1.22 419.76, -1.39 245.88, 0 32 M0 32 C1.59 12.57, 12.02 0.01, 32 0 M0 32 C-1.43 9.11, 10.22 1.15, 32 0" stroke="#000000" stroke-width="1" fill="none"></path></g><g stroke-linecap="round" transform="translate(755.94921875 183.7945556640625) rotate(0 168.39453125 68.1171875)"><path d="M32 0 M32 0 C107.2 -0.13, 184.91 2.61, 304.79 0 M32 0 C96.71 0.56, 160.22 0.5, 304.79 0 M304.79 0 C328.08 0.68, 337.57 12.33, 336.79 32 M304.79 0 C325 0.6, 335.44 10.68, 336.79 32 M336.79 32 C334.92 60.35, 336.08 83.52, 336.79 104.23 M336.79 32 C337.73 51.11, 336.77 71.15, 336.79 104.23 M336.79 104.23 C338.12 125.2, 324.94 134.48, 304.79 136.23 M336.79 104.23 C338.85 125.71, 326.6 137.54, 304.79 136.23 M304.79 136.23 C228.2 134.99, 151.31 134.13, 32 136.23 M304.79 136.23 C239.97 137.14, 174.7 137.29, 32 136.23 M32 136.23 C9.69 135.88, 1.21 127.41, 0 104.23 M32 136.23 C12.16 134.77, -1.5 123.32, 0 104.23 M0 104.23 C-0.22 83.13, 1.07 63.76, 0 32 M0 104.23 C0.71 82.99, 0.43 61.23, 0 32 M0 32 C0.17 10.75, 10.2 1.5, 32 0 M0 32 C1.49 12.18, 9.96 2.17, 32 0" stroke="#000000" stroke-width="1" fill="none"></path></g><g stroke-linecap="round" transform="translate(782.93359375 206.3765869140625) rotate(0 27.466796875 25.103515625)"><path d="M40.63 1.7 C45.6 3.81, 49.93 10.25, 52.24 15.32 C54.54 20.39, 56.11 26.89, 54.43 32.11 C52.75 37.34, 47.22 43.6, 42.15 46.68 C37.08 49.77, 29.67 51.21, 24.02 50.61 C18.37 50.01, 12.42 46.95, 8.26 43.08 C4.1 39.21, -0.44 32.75, -0.92 27.36 C-1.4 21.98, 1.64 15.2, 5.36 10.77 C9.08 6.35, 15.17 1.88, 21.42 0.82 C27.66 -0.23, 39.06 3.57, 42.82 4.45 C46.58 5.33, 44.4 6.02, 43.98 6.11 M25.06 -0.5 C30.72 -1.48, 38.4 0.6, 43.2 3.77 C48 6.93, 52.08 13.27, 53.86 18.47 C55.65 23.67, 56.09 30.09, 53.89 34.98 C51.69 39.88, 46.27 45.33, 40.66 47.84 C35.06 50.36, 26.36 51.47, 20.28 50.08 C14.2 48.69, 7.81 44.06, 4.2 39.51 C0.59 34.96, -1.75 28.06, -1.39 22.77 C-1.03 17.48, 1.93 11.44, 6.39 7.77 C10.84 4.1, 22.24 2.06, 25.36 0.74 C28.49 -0.58, 25.35 -0.36, 25.14 -0.15" stroke="#000000" stroke-width="1" fill="none"></path></g><g transform="translate(869.10546875 104.1422119140625) rotate(0 53.5 12.5)"><text x="0" y="18" font-family="Virgil, Segoe UI Emoji" font-size="20px" fill="#000000" text-anchor="start" style="white-space: pre;" direction="ltr">Tutor View</text></g><g transform="translate(860.65234375 207.8687744140625) rotate(0 59.5 12.5)"><text x="0" y="18" font-family="Virgil, Segoe UI Emoji" font-size="20px" fill="#000000" text-anchor="start" style="white-space: pre;" direction="ltr">Tutor Name</text></g><g transform="translate(863.1796875 232.5875244140625) rotate(0 43 12.5)"><text x="0" y="18" font-family="Virgil, Segoe UI Emoji" font-size="20px" fill="#000000" text-anchor="start" style="white-space: pre;" direction="ltr">TutorID</text></g><g stroke-linecap="round" transform="translate(791.5671875 271.6343994140625) rotate(0 58.5 16.5)"><path d="M8.25 0 M8.25 0 C30.43 1.83, 57.8 1.25, 108.75 0 M8.25 0 C34.25 1.14, 61.27 0.2, 108.75 0 M108.75 0 C115.79 1.85, 115.36 1.66, 117 8.25 M108.75 0 C113.09 -2.3, 116.11 1.29, 117 8.25 M117 8.25 C116.01 15.01, 116.41 18.87, 117 24.75 M117 8.25 C117.42 13.92, 117.08 20.1, 117 24.75 M117 24.75 C116.43 29.96, 115.5 32.58, 108.75 33 M117 24.75 C117.2 29.27, 115.4 30.86, 108.75 33 M108.75 33 C85.12 33.89, 66.79 34.59, 8.25 33 M108.75 33 C86.5 33.41, 63.86 33.41, 8.25 33 M8.25 33 C2.13 31.06, -1.36 29.03, 0 24.75 M8.25 33 C4.62 32.91, -0.67 30.31, 0 24.75 M0 24.75 C1.38 18.1, 0.45 14.97, 0 8.25 M0 24.75 C0.88 20.91, -0.54 16.79, 0 8.25 M0 8.25 C1.98 3.06, 1.32 0.61, 8.25 0 M0 8.25 C0.7 1.97, 1.22 0.74, 8.25 0" stroke="#000000" stroke-width="1" fill="none"></path></g><g transform="translate(843.0671875 276.6343994140625) rotate(0 7 11.5)"><text x="7" y="16" font-family="Virgil, Segoe UI Emoji" font-size="18.414331896551705px" fill="#000000" text-anchor="middle" style="white-space: pre;" direction="ltr">2</text></g><g stroke-linecap="round" transform="translate(934.529296875 268.9058837890625) rotate(0 59.8671875 17.5)"><path d="M8.75 0 M8.75 0 C47.6 0.96, 88 0.08, 110.98 0 M8.75 0 C38.16 0.62, 68.61 0.65, 110.98 0 M110.98 0 C115.59 -0.37, 121.69 3.93, 119.73 8.75 M110.98 0 C116.92 0.98, 121.7 3.18, 119.73 8.75 M119.73 8.75 C119.52 14.41, 118.44 20.86, 119.73 26.25 M119.73 8.75 C120.42 13.12, 120.11 18.03, 119.73 26.25 M119.73 26.25 C120.02 30.25, 115.36 34.14, 110.98 35 M119.73 26.25 C121.98 32.16, 115.19 34.6, 110.98 35 M110.98 35 C72.06 34.84, 32.81 35.28, 8.75 35 M110.98 35 C82.12 35.2, 52.11 35.6, 8.75 35 M8.75 35 C4.7 34.89, -0.82 31.2, 0 26.25 M8.75 35 C3.83 34.23, -0.65 31.63, 0 26.25 M0 26.25 C0.84 20.77, -0.81 14.93, 0 8.75 M0 26.25 C0.91 20.86, -0.61 14.41, 0 8.75 M0 8.75 C0.41 1.32, 1.89 0.72, 8.75 0 M0 8.75 C-0.69 1.59, 3.49 -1.18, 8.75 0" stroke="#000000" stroke-width="1" fill="none"></path></g><g transform="translate(986.896484375 273.9058837890625) rotate(0 7.5 12.5)"><text x="7.5" y="18" font-family="Virgil, Segoe UI Emoji" font-size="20px" fill="#000000" text-anchor="middle" style="white-space: pre;" direction="ltr">3</text></g><g stroke-linecap="round" transform="translate(763.703125 386.6748046875) rotate(0 161.427734375 56.572265625)"><path d="M28.29 0 M28.29 0 C130.44 -0.19, 232.3 -1.95, 294.57 0 M28.29 0 C130.32 1.49, 231.09 2.14, 294.57 0 M294.57 0 C311.78 0.96, 323.6 11.1, 322.86 28.29 M294.57 0 C313.04 -0.78, 321.44 11.05, 322.86 28.29 M322.86 28.29 C324.77 45, 321.36 62.24, 322.86 84.86 M322.86 28.29 C323.44 49.39, 323.54 70.82, 322.86 84.86 M322.86 84.86 C321.92 103.63, 314.6 112.07, 294.57 113.14 M322.86 84.86 C321.77 103.53, 312.14 114.03, 294.57 113.14 M294.57 113.14 C201.27 113.73, 107.2 113.29, 28.29 113.14 M294.57 113.14 C199.92 112.36, 104.79 111.98, 28.29 113.14 M28.29 113.14 C8.1 112.74, 0.93 104.42, 0 84.86 M28.29 113.14 C9.48 112.27, 2.24 102.18, 0 84.86 M0 84.86 C1.63 73.33, 1.82 57.87, 0 28.29 M0 84.86 C-0.11 63.52, -0.78 41.08, 0 28.29 M0 28.29 C1.12 8.74, 10.31 1.53, 28.29 0 M0 28.29 C-2.08 11.1, 9.38 -1.51, 28.29 0" stroke="#000000" stroke-width="1" fill="none"></path></g><g transform="translate(759.1067506377551 338.0826203762755) rotate(0 69.5 10)"><text x="0" y="14" font-family="Virgil, Segoe UI Emoji" font-size="16.016326530612247px" fill="#000000" text-anchor="start" style="white-space: pre;" direction="ltr">Pending Questions</text></g><g stroke-linecap="round" transform="translate(764.142578125 519.5947265625) rotate(0 161.427734375 56.572265625)"><path d="M28.29 0 M28.29 0 C83.64 -2.19, 140.2 -1.02, 294.57 0 M28.29 0 C115.99 0.1, 202.82 -0.91, 294.57 0 M294.57 0 C311.6 0.18, 324.43 9.93, 322.86 28.29 M294.57 0 C314.22 1.1, 321.41 10.16, 322.86 28.29 M322.86 28.29 C321.06 46.01, 323.34 65.77, 322.86 84.86 M322.86 28.29 C323.31 48.93, 322.14 68.98, 322.86 84.86 M322.86 84.86 C324.58 102.06, 312.07 111.96, 294.57 113.14 M322.86 84.86 C321.13 105.8, 312.7 113.64, 294.57 113.14 M294.57 113.14 C199.04 112.4, 103.51 110.83, 28.29 113.14 M294.57 113.14 C213.25 114.97, 132.76 115.28, 28.29 113.14 M28.29 113.14 C7.49 111.56, -1.26 102.23, 0 84.86 M28.29 113.14 C8.09 112.98, -2.22 102.34, 0 84.86 M0 84.86 C0.68 72.44, -0.04 62.51, 0 28.29 M0 84.86 C0.85 68.21, 0.71 51.8, 0 28.29 M0 28.29 C0.31 8.76, 9.82 -1.03, 28.29 0 M0 28.29 C-0.07 10.2, 8.29 1.49, 28.29 0" stroke="#000000" stroke-width="1" fill="none"></path></g><g transform="translate(787.8125 397.9716796875) rotate(0 77 12.5)"><text x="0" y="18" font-family="Virgil, Segoe UI Emoji" font-size="20px" fill="#000000" text-anchor="start" style="white-space: pre;" direction="ltr">Help w/ chem qn</text></g><g transform="translate(785.61328125 534.9560546875) rotate(0 79 12.5)"><text x="0" y="18" font-family="Virgil, Segoe UI Emoji" font-size="20px" fill="#000000" text-anchor="start" style="white-space: pre;" direction="ltr">Help w/ math qn</text></g><g transform="translate(790.4765625 464.5029296875) rotate(0 65 10)"><text x="0" y="14" font-family="Virgil, Segoe UI Emoji" font-size="16px" fill="#000000" text-anchor="start" style="white-space: pre;" direction="ltr">by: studentName</text></g><g transform="translate(789.73828125 598.6513671875) rotate(0 65 10)"><text x="0" y="14" font-family="Virgil, Segoe UI Emoji" font-size="16px" fill="#000000" text-anchor="start" style="white-space: pre;" direction="ltr">by: studentName</text></g><g stroke-linecap="round" transform="translate(920.09765625 658.9365234375) rotate(0 4.3046875 7.13671875)"><path d="M3.21 1.25 C4.09 0.44, 5.02 -0.2, 5.86 -0.05 C6.69 0.11, 7.67 1.03, 8.21 2.18 C8.74 3.33, 9.3 5.13, 9.05 6.84 C8.81 8.56, 7.64 11.3, 6.76 12.48 C5.89 13.65, 4.79 13.84, 3.81 13.88 C2.83 13.93, 1.41 13.44, 0.89 12.74 C0.37 12.03, 0.9 11.19, 0.71 9.65 C0.52 8.12, -0.62 5.16, -0.26 3.54 C0.09 1.92, 2.31 0.61, 2.84 -0.06 C3.36 -0.72, 2.78 -0.67, 2.9 -0.45 M4.92 0.79 C5.66 0.71, 5.37 2.33, 5.99 3.17 C6.6 4.01, 8.18 4.41, 8.61 5.83 C9.04 7.25, 9.16 10.24, 8.54 11.67 C7.93 13.09, 5.92 13.81, 4.93 14.39 C3.94 14.97, 3.59 15.59, 2.62 15.14 C1.65 14.69, -0.68 13.38, -0.9 11.72 C-1.11 10.05, 1.08 6.68, 1.33 5.16 C1.58 3.64, 0.01 3.67, 0.63 2.61 C1.24 1.55, 4.59 -0.96, 5.03 -1.19 C5.48 -1.41, 3.39 1.09, 3.31 1.25" stroke="#000000" stroke-width="1" fill="none"></path></g><g stroke-linecap="round" transform="translate(918.30078125 728.1044921875) rotate(0 4.3046875 7.13671875)"><path d="M4.26 0.1 C5.01 0.01, 5.9 0.72, 6.44 1.49 C6.98 2.26, 7.26 3.26, 7.48 4.74 C7.7 6.23, 8.08 9.03, 7.75 10.4 C7.42 11.77, 6.27 12.43, 5.49 12.99 C4.71 13.54, 3.83 14.07, 3.06 13.72 C2.3 13.36, 1.55 12.24, 0.92 10.86 C0.29 9.49, -0.91 6.89, -0.71 5.46 C-0.52 4.04, 1.39 3.14, 2.07 2.33 C2.75 1.52, 3 1.1, 3.36 0.61 C3.72 0.13, 4.16 -0.46, 4.24 -0.57 M3.39 -1.24 C3.96 -1.6, 5.62 -1.12, 6.27 0.05 C6.92 1.23, 6.85 4.38, 7.3 5.8 C7.74 7.22, 8.84 7.42, 8.92 8.58 C9 9.73, 8.75 11.65, 7.77 12.73 C6.79 13.82, 4.08 15.16, 3.04 15.06 C1.99 14.96, 1.79 13.47, 1.5 12.12 C1.21 10.77, 1.58 8.47, 1.3 6.96 C1.03 5.44, -0.77 4.06, -0.13 3.06 C0.51 2.06, 4.71 1.5, 5.12 0.95 C5.54 0.4, 2.72 -0.2, 2.34 -0.22" stroke="#000000" stroke-width="1" fill="none"></path></g><g stroke-linecap="round" transform="translate(918.4609375 693.8662109375) rotate(0 4.3046875 7.13671875)"><path d="M5.15 -0.25 C6.13 -0.29, 7.3 0.41, 7.78 1.58 C8.26 2.74, 8.01 5.13, 8.01 6.72 C8.01 8.32, 8.39 9.92, 7.79 11.14 C7.19 12.37, 5.39 13.69, 4.4 14.07 C3.4 14.46, 2.58 14.34, 1.84 13.46 C1.1 12.58, 0.36 10.15, -0.07 8.82 C-0.5 7.49, -1.15 6.93, -0.73 5.46 C-0.31 3.99, 1.31 0.93, 2.44 0 C3.58 -0.93, 5.64 -0.15, 6.08 -0.13 C6.53 -0.11, 5.34 -0.02, 5.09 0.12 M4.94 0.41 C5.66 0.85, 6.47 1.63, 7.19 3.2 C7.9 4.77, 9.53 7.94, 9.23 9.83 C8.92 11.73, 6.39 13.91, 5.36 14.59 C4.34 15.26, 3.6 14.22, 3.06 13.9 C2.52 13.57, 2.53 13.49, 2.13 12.64 C1.73 11.8, 0.85 10.69, 0.66 8.84 C0.47 7, 0.43 2.82, 1 1.6 C1.57 0.39, 3.05 1.94, 4.07 1.56 C5.09 1.19, 6.84 -0.39, 7.13 -0.66 C7.41 -0.94, 5.95 -0.46, 5.78 -0.09" stroke="#000000" stroke-width="1" fill="none"></path></g><g stroke-linecap="round" transform="translate(1224.818359375 156.5361328125) rotate(0 193.888671875 312.912109375)"><path d="M32 0 M32 0 C125.95 2.6, 221.64 2.07, 355.78 0 M32 0 C159.4 1.09, 287.19 1.43, 355.78 0 M355.78 0 C378.63 -1.96, 386.53 8.92, 387.78 32 M355.78 0 C376.31 0, 388.76 10.83, 387.78 32 M387.78 32 C388.9 168, 388.94 305.66, 387.78 593.82 M387.78 32 C388.05 232.56, 388.46 433.72, 387.78 593.82 M387.78 593.82 C389.35 614.12, 377.92 623.96, 355.78 625.82 M387.78 593.82 C387.36 615.09, 379.38 625.92, 355.78 625.82 M355.78 625.82 C237.88 625.49, 119.6 624.8, 32 625.82 M355.78 625.82 C279.93 627.59, 203.69 627.01, 32 625.82 M32 625.82 C10.63 625.47, -1.02 615.8, 0 593.82 M32 625.82 C11.73 624.26, 1.42 613.96, 0 593.82 M0 593.82 C-1.5 408.06, -1.5 221.1, 0 32 M0 593.82 C2.16 446.21, 2.52 298.9, 0 32 M0 32 C0.08 10.77, 10 -0.8, 32 0 M0 32 C1.94 12.05, 9.92 -0.23, 32 0" stroke="#000000" stroke-width="1" fill="none"></path></g><g stroke-linecap="round" transform="translate(1251.537109375 182.3759765625) rotate(0 168.39453125 68.1171875)"><path d="M32 0 M32 0 C101.14 1.41, 168.82 2.61, 304.79 0 M32 0 C104.11 0.52, 177.23 0.93, 304.79 0 M304.79 0 C324.16 -1.25, 335.04 9.97, 336.79 32 M304.79 0 C326.13 0.98, 336.95 9.36, 336.79 32 M336.79 32 C335.86 57.45, 338.43 84.48, 336.79 104.23 M336.79 32 C336.04 55.81, 336.73 80.17, 336.79 104.23 M336.79 104.23 C335.75 126.38, 324.26 135.87, 304.79 136.23 M336.79 104.23 C336.72 127.84, 326.22 137.72, 304.79 136.23 M304.79 136.23 C221.28 136.33, 137.12 135.42, 32 136.23 M304.79 136.23 C211.73 135.41, 117.49 136, 32 136.23 M32 136.23 C10.31 135.22, 0.64 126.49, 0 104.23 M32 136.23 C9.1 137.66, -1.2 126.3, 0 104.23 M0 104.23 C1.3 77.99, -0.25 52.77, 0 32 M0 104.23 C-0.03 90.46, 0.32 75.23, 0 32 M0 32 C0.1 10, 9.86 1.69, 32 0 M0 32 C1.38 9.92, 10.44 1.77, 32 0" stroke="#000000" stroke-width="1" fill="none"></path></g><g stroke-linecap="round" transform="translate(1278.521484375 204.9580078125) rotate(0 27.466796875 25.103515625)"><path d="M28.96 -0.08 C34.27 0.11, 41.71 3.54, 45.97 7.47 C50.22 11.41, 53.99 18.31, 54.51 23.52 C55.02 28.74, 52.52 34.51, 49.08 38.75 C45.64 42.99, 39.37 47.36, 33.86 48.96 C28.35 50.56, 21.2 50.63, 16.01 48.35 C10.82 46.07, 5.14 40.06, 2.72 35.28 C0.29 30.5, 0 24.9, 1.45 19.66 C2.9 14.41, 5.87 6.88, 11.42 3.84 C16.97 0.8, 29.96 1.5, 34.73 1.42 C39.5 1.34, 40.13 3.19, 40.04 3.36 M17.98 1.19 C23.07 -1.3, 30.8 -1.99, 36.18 -0.28 C41.56 1.43, 46.93 6.68, 50.27 11.45 C53.61 16.21, 56.73 22.94, 56.2 28.29 C55.67 33.65, 51.7 39.92, 47.11 43.59 C42.53 47.27, 34.76 50.09, 28.69 50.32 C22.63 50.56, 15.55 48.44, 10.74 45 C5.92 41.56, 0.97 34.77, -0.2 29.69 C-1.38 24.61, 0.87 18.97, 3.67 14.51 C6.48 10.06, 14.62 5.03, 16.65 2.98 C18.68 0.92, 15.66 2.01, 15.86 2.18" stroke="#000000" stroke-width="1" fill="none"></path></g><g transform="translate(1364.693359375 102.7236328125) rotate(0 63.5 12.5)"><text x="0" y="18" font-family="Virgil, Segoe UI Emoji" font-size="20px" fill="#000000" text-anchor="start" style="white-space: pre;" direction="ltr">Student View</text></g><g transform="translate(1356.240234375 206.4501953125) rotate(0 69.5 12.5)"><text x="0" y="18" font-family="Virgil, Segoe UI Emoji" font-size="20px" fill="#000000" text-anchor="start" style="white-space: pre;" direction="ltr">Student Name</text></g><g transform="translate(1358.767578125 231.1689453125) rotate(0 52.5 12.5)"><text x="0" y="18" font-family="Virgil, Segoe UI Emoji" font-size="20px" fill="#000000" text-anchor="start" style="white-space: pre;" direction="ltr">StudentID</text></g><g stroke-linecap="round" transform="translate(1287.1550781249998 270.2158203125) rotate(0 58.5 16.5)"><path d="M8.25 0 M8.25 0 C38.57 0.02, 70.21 0.79, 108.75 0 M8.25 0 C34.68 0.11, 62 0.99, 108.75 0 M108.75 0 C115.11 0.14, 115.86 3.86, 117 8.25 M108.75 0 C116.32 -0.36, 115.18 2.51, 117 8.25 M117 8.25 C117.2 12.53, 115.78 19.99, 117 24.75 M117 8.25 C117.46 12.27, 116.98 17.8, 117 24.75 M117 24.75 C118.97 30.33, 115.54 33.11, 108.75 33 M117 24.75 C116.79 30.48, 114.04 32.83, 108.75 33 M108.75 33 C85.72 33.22, 61.73 31.88, 8.25 33 M108.75 33 C79.75 33.14, 52.22 32.14, 8.25 33 M8.25 33 C3.99 31.95, 0.63 31.27, 0 24.75 M8.25 33 C3.16 31.98, 1.64 29.23, 0 24.75 M0 24.75 C-0.88 19.65, -0.67 16.29, 0 8.25 M0 24.75 C-0.28 19.62, 0.69 15.64, 0 8.25 M0 8.25 C-0.65 2.55, 4.29 -0.95, 8.25 0 M0 8.25 C2.03 0.55, 3.95 -0.1, 8.25 0" stroke="#000000" stroke-width="1" fill="none"></path></g><g transform="translate(1338.6550781249998 275.2158203125) rotate(0 7 11.5)"><text x="7" y="16" font-family="Virgil, Segoe UI Emoji" font-size="18.414331896551705px" fill="#000000" text-anchor="middle" style="white-space: pre;" direction="ltr">2</text></g><g stroke-linecap="round" transform="translate(1430.1171875 267.4873046875) rotate(0 59.8671875 17.5)"><path d="M8.75 0 M8.75 0 C34.4 0.62, 62.65 1.68, 110.98 0 M8.75 0 C29.05 0.9, 50.47 0.97, 110.98 0 M110.98 0 C115.68 1.11, 121.54 2.61, 119.73 8.75 M110.98 0 C115 -0.24, 120.87 4.24, 119.73 8.75 M119.73 8.75 C118.35 14.7, 119.57 21.6, 119.73 26.25 M119.73 8.75 C119.64 13.06, 120.67 17.46, 119.73 26.25 M119.73 26.25 C121.03 32.2, 116.64 35.2, 110.98 35 M119.73 26.25 C119.52 31.91, 115.45 33.48, 110.98 35 M110.98 35 C77.26 33.34, 40.51 34.86, 8.75 35 M110.98 35 C82.59 34.65, 53.89 34.81, 8.75 35 M8.75 35 C3.55 36.02, 0.36 31.2, 0 26.25 M8.75 35 C4.56 33.98, -0.14 31.22, 0 26.25 M0 26.25 C-0.67 24.04, -0.06 19.28, 0 8.75 M0 26.25 C0.8 21.44, -0.23 15.49, 0 8.75 M0 8.75 C1.54 1.97, 4.68 -1.91, 8.75 0 M0 8.75 C1.2 2.81, 1.96 0.13, 8.75 0" stroke="#000000" stroke-width="1" fill="none"></path></g><g transform="translate(1482.484375 272.4873046875) rotate(0 7.5 12.5)"><text x="7.5" y="18" font-family="Virgil, Segoe UI Emoji" font-size="20px" fill="#000000" text-anchor="middle" style="white-space: pre;" direction="ltr">3</text></g><g stroke-linecap="round" transform="translate(753.41796875 333.5732421875) rotate(0 74.74807079081631 15.328125)"><path d="M7.66 0 M7.66 0 C56.24 0.7, 99.58 1.58, 141.83 0 M7.66 0 C45.55 -1.99, 84.87 -1.55, 141.83 0 M141.83 0 C145.21 1.91, 151.12 4.18, 149.5 7.66 M141.83 0 C148.37 -2.03, 149.31 0.58, 149.5 7.66 M149.5 7.66 C148.79 12.91, 149.1 17.85, 149.5 22.99 M149.5 7.66 C148.87 11.77, 148.98 17.34, 149.5 22.99 M149.5 22.99 C148.44 29.9, 147.63 29.19, 141.83 30.66 M149.5 22.99 C149.45 26.36, 148.38 30.16, 141.83 30.66 M141.83 30.66 C92.65 32.03, 46.4 31.44, 7.66 30.66 M141.83 30.66 C111.9 32.24, 82.74 31.48, 7.66 30.66 M7.66 30.66 C1.99 29.11, 1.01 28.25, 0 22.99 M7.66 30.66 C1.36 28.53, 0.93 28.69, 0 22.99 M0 22.99 C0.96 17.51, 0.44 11.92, 0 7.66 M0 22.99 C0.67 18.49, -0.38 13.54, 0 7.66 M0 7.66 C1.02 0.79, 0.6 -1.26, 7.66 0 M0 7.66 C1.9 4.51, 2.08 0.03, 7.66 0" stroke="#000000" stroke-width="1" fill="none"></path></g><g transform="translate(944.9289923469387 337.4498078762755) rotate(0 69.5 9)"><text x="0" y="13" font-family="Virgil, Segoe UI Emoji" font-size="14.451013368009546px" fill="#000000" text-anchor="start" style="white-space: pre;" direction="ltr">Answered Questions</text></g><g stroke-linecap="round" transform="translate(939.0448979591838 331.5458984375) rotate(0 74.74807079081631 15.328125)"><path d="M7.66 0 M7.66 0 C42.19 0.09, 75.21 0.65, 141.83 0 M7.66 0 C47.08 -0.31, 84.74 -0.7, 141.83 0 M141.83 0 C145.12 -0.43, 150.8 3.42, 149.5 7.66 M141.83 0 C145.65 0.83, 148.94 3.03, 149.5 7.66 M149.5 7.66 C148.77 12.38, 150.25 18.29, 149.5 22.99 M149.5 7.66 C150.34 11.4, 150.26 15.06, 149.5 22.99 M149.5 22.99 C150.76 26.72, 146.32 29.14, 141.83 30.66 M149.5 22.99 C151.74 28.52, 145.47 32.16, 141.83 30.66 M141.83 30.66 C103.24 32.95, 59.61 31.27, 7.66 30.66 M141.83 30.66 C104.58 29.92, 65.56 31.48, 7.66 30.66 M7.66 30.66 C1.25 32.46, 0.63 27.84, 0 22.99 M7.66 30.66 C1.48 29.19, -0.44 29.07, 0 22.99 M0 22.99 C-1.11 17.35, 0.24 13.28, 0 7.66 M0 22.99 C-0.18 18.1, -0.71 13.59, 0 7.66 M0 7.66 C1.47 1.62, 4.28 -1.24, 7.66 0 M0 7.66 C-1.36 2.44, 3.69 -1.39, 7.66 0" stroke="#000000" stroke-width="1" fill="none"></path></g><g stroke-linecap="round" transform="translate(753.4921875 374.8232421875) rotate(0 174.337890625 197.09765625)"><path d="M32 0 M32 0 C117.59 2, 206.34 2.62, 316.68 0 M32 0 C97.44 1.43, 163.76 1.62, 316.68 0 M316.68 0 C338.83 1.04, 346.7 11, 348.68 32 M316.68 0 C338.12 -1.01, 348.06 9.25, 348.68 32 M348.68 32 C350.44 118.42, 349.67 204.1, 348.68 362.2 M348.68 32 C348.35 102.14, 347.56 172.24, 348.68 362.2 M348.68 362.2 C347.18 382.88, 339.92 394.48, 316.68 394.2 M348.68 362.2 C350.74 384.91, 338.55 392.45, 316.68 394.2 M316.68 394.2 C245.74 392.03, 172.4 392.87, 32 394.2 M316.68 394.2 C249.15 395.09, 179.73 395.28, 32 394.2 M32 394.2 C12.41 394.39, -0.96 383.8, 0 362.2 M32 394.2 C9.2 394.39, -0.33 384.09, 0 362.2 M0 362.2 C-0.34 261.79, -2.49 162.72, 0 32 M0 362.2 C-1.06 293.16, -1.45 223.55, 0 32 M0 32 C-1.19 12.51, 8.8 0.02, 32 0 M0 32 C-1.98 9.43, 12.44 0.77, 32 0" stroke="#000000" stroke-width="1" fill="none"></path></g><g stroke-linecap="round"><g transform="translate(753.80859375 333.3896484375) rotate(0 -0.4077669724822499 39.41600956456273)"><path d="M1.08 -0.96 C0.93 11.95, -1.51 65.15, -1.89 78.48 M0.18 1.15 C0.52 14.75, 0.82 66.58, 0.47 79.79" stroke="#000000" stroke-width="1" fill="none"></path></g></g><mask></mask><g stroke-linecap="round"><g transform="translate(902.23828125 330.6123046875) rotate(0 -0.09199319430126707 24.19087011302821)"><path d="M-0.86 0.77 C-1.17 8.55, -1.36 39.13, -1.08 46.9 M0.88 0.13 C0.86 8.07, 1.1 40.15, 1.01 48.25" stroke="#000000" stroke-width="1" fill="none"></path></g></g><mask></mask><g stroke-linecap="round" transform="translate(1262.1192803422864 385.1849443095409) rotate(0 161.427734375 56.572265625)"><path d="M28.29 0 M28.29 0 C113.11 0.45, 197.17 -0.28, 294.57 0 M28.29 0 C126.61 -0.56, 225.37 -1.75, 294.57 0 M294.57 0 C314.43 1.39, 324.73 9.61, 322.86 28.29 M294.57 0 C311.83 1.24, 323.83 11.13, 322.86 28.29 M322.86 28.29 C321.5 39.45, 322.32 53.57, 322.86 84.86 M322.86 28.29 C323.5 41.6, 322.3 55.98, 322.86 84.86 M322.86 84.86 C324.09 105.37, 312.34 114.84, 294.57 113.14 M322.86 84.86 C322.62 101.8, 313.31 112.54, 294.57 113.14 M294.57 113.14 C221.58 114.48, 145.09 113.92, 28.29 113.14 M294.57 113.14 C224.36 112.12, 155.61 111.63, 28.29 113.14 M28.29 113.14 C8.96 113.49, -1.71 105.51, 0 84.86 M28.29 113.14 C8.72 113.36, -0.05 102.77, 0 84.86 M0 84.86 C-1.11 62.25, -1.8 41.36, 0 28.29 M0 84.86 C1.18 63.08, -0.17 42.13, 0 28.29 M0 28.29 C1.04 8.04, 7.5 -1.39, 28.29 0 M0 28.29 C-1.58 8.8, 9.07 2.11, 28.29 0" stroke="#000000" stroke-width="1" fill="none"></path></g><g transform="translate(1257.5229059800413 336.5927599983165) rotate(0 69.5 10)"><text x="0" y="14" font-family="Virgil, Segoe UI Emoji" font-size="16.016326530612247px" fill="#000000" text-anchor="start" style="white-space: pre;" direction="ltr">Pending Questions</text></g><g stroke-linecap="round" transform="translate(1262.5587334672864 518.1048661845409) rotate(0 161.427734375 56.572265625)"><path d="M28.29 0 M28.29 0 C121.75 -1.22, 215.03 -2.79, 294.57 0 M28.29 0 C123.78 -2.23, 218.32 -1.11, 294.57 0 M294.57 0 C315.3 0.19, 321.47 10.51, 322.86 28.29 M294.57 0 C314.4 1.7, 320.92 10.93, 322.86 28.29 M322.86 28.29 C321.46 50.69, 321.15 72.36, 322.86 84.86 M322.86 28.29 C322.25 45.48, 323.68 62.17, 322.86 84.86 M322.86 84.86 C321.77 105.41, 313.23 111.47, 294.57 113.14 M322.86 84.86 C322.74 103.11, 312.94 112.36, 294.57 113.14 M294.57 113.14 C209.97 115.01, 126.81 114.06, 28.29 113.14 M294.57 113.14 C229.22 112.89, 162.23 113.45, 28.29 113.14 M28.29 113.14 C7.71 114.94, -0.61 103.9, 0 84.86 M28.29 113.14 C9.38 112.2, 1.98 104.25, 0 84.86 M0 84.86 C-1.39 68.77, 1.95 50.55, 0 28.29 M0 84.86 C-1.06 70.48, 0.14 54.08, 0 28.29 M0 28.29 C-1.93 8.03, 8.05 -0.55, 28.29 0 M0 28.29 C-0.35 11.54, 8.41 0.23, 28.29 0" stroke="#000000" stroke-width="1" fill="none"></path></g><g transform="translate(1286.2286553422864 396.4818193095409) rotate(0 77 12.5)"><text x="0" y="18" font-family="Virgil, Segoe UI Emoji" font-size="20px" fill="#000000" text-anchor="start" style="white-space: pre;" direction="ltr">Help w/ chem qn</text></g><g transform="translate(1284.0294365922864 533.4661943095409) rotate(0 79 12.5)"><text x="0" y="18" font-family="Virgil, Segoe UI Emoji" font-size="20px" fill="#000000" text-anchor="start" style="white-space: pre;" direction="ltr">Help w/ math qn</text></g><g transform="translate(1288.8927178422864 463.0130693095409) rotate(0 65 10)"><text x="0" y="14" font-family="Virgil, Segoe UI Emoji" font-size="16px" fill="#000000" text-anchor="start" style="white-space: pre;" direction="ltr">by: studentName</text></g><g transform="translate(1288.1544365922864 597.1615068095409) rotate(0 65 10)"><text x="0" y="14" font-family="Virgil, Segoe UI Emoji" font-size="16px" fill="#000000" text-anchor="start" style="white-space: pre;" direction="ltr">by: studentName</text></g><g stroke-linecap="round" transform="translate(1418.5138115922864 657.4466630595409) rotate(0 4.3046875 7.13671875)"><path d="M6.46 1.24 C7.3 1.85, 8.84 2.61, 9.06 3.94 C9.29 5.28, 8.1 7.63, 7.81 9.23 C7.52 10.83, 8.1 12.6, 7.34 13.54 C6.59 14.49, 4.13 15.26, 3.27 14.92 C2.41 14.58, 2.83 12.75, 2.2 11.53 C1.58 10.31, -0.31 9.08, -0.49 7.61 C-0.67 6.13, 0.43 3.91, 1.1 2.68 C1.76 1.46, 2.5 0.53, 3.49 0.25 C4.48 -0.04, 6.56 0.55, 7.05 0.97 C7.54 1.4, 6.43 2.52, 6.43 2.79 M1.9 0.19 C2.45 -0.32, 4.73 -0.36, 5.69 0.32 C6.65 1, 7.02 2.66, 7.68 4.26 C8.34 5.86, 9.96 8.38, 9.65 9.9 C9.34 11.42, 6.88 12.74, 5.84 13.4 C4.8 14.05, 4.3 14.12, 3.41 13.81 C2.52 13.5, 1.06 12.31, 0.51 11.55 C-0.03 10.79, 0.24 10.69, 0.14 9.22 C0.05 7.76, -0.6 4.46, -0.06 2.75 C0.49 1.05, 2.64 -0.55, 3.4 -1.02 C4.17 -1.49, 4.52 -0.38, 4.52 -0.06" stroke="#000000" stroke-width="1" fill="none"></path></g><g stroke-linecap="round" transform="translate(1416.7169365922864 726.6146318095409) rotate(0 4.3046875 7.13671875)"><path d="M6.78 1.58 C7.73 1.89, 7.91 2.07, 8.28 3.36 C8.65 4.65, 9.14 7.88, 9.01 9.34 C8.89 10.79, 8.28 11.15, 7.55 12.1 C6.82 13.06, 5.81 15.13, 4.63 15.06 C3.44 15, 1.27 12.84, 0.43 11.71 C-0.42 10.57, -0.38 9.61, -0.43 8.25 C-0.48 6.89, -0.44 4.84, 0.14 3.57 C0.73 2.3, 1.97 1.12, 3.07 0.64 C4.17 0.16, 5.88 0.23, 6.75 0.69 C7.61 1.15, 8.14 3.26, 8.27 3.4 M6 0.24 C6.79 0.88, 7.42 1.89, 7.86 3.53 C8.31 5.17, 8.69 8.67, 8.68 10.07 C8.67 11.48, 8.51 11.36, 7.81 11.96 C7.1 12.56, 5.6 13.77, 4.44 13.69 C3.28 13.61, 1.71 12.42, 0.86 11.47 C0.01 10.51, -0.88 9.5, -0.66 7.97 C-0.45 6.44, 1.56 3.55, 2.14 2.31 C2.71 1.07, 2.35 0.58, 2.79 0.52 C3.23 0.47, 4.32 1.92, 4.79 1.98 C5.25 2.04, 5.4 1.12, 5.58 0.9" stroke="#000000" stroke-width="1" fill="none"></path></g><g stroke-linecap="round" transform="translate(1416.8770928422864 692.3763505595409) rotate(0 4.3046875 7.13671875)"><path d="M3.72 0.55 C4.32 -0.07, 4.25 0.33, 5.03 0.94 C5.82 1.55, 7.98 2.9, 8.43 4.23 C8.88 5.56, 7.8 7.7, 7.71 8.94 C7.63 10.18, 8.57 10.87, 7.92 11.68 C7.28 12.5, 4.82 13.76, 3.83 13.82 C2.85 13.88, 2.55 12.96, 2 12.05 C1.45 11.14, 0.72 9.82, 0.55 8.39 C0.37 6.95, 0.48 4.72, 0.92 3.44 C1.37 2.15, 2.41 1.05, 3.24 0.67 C4.08 0.3, 5.91 1.04, 5.96 1.19 M3.7 -0.31 C4.69 -0.43, 5.39 0.51, 6.39 1.65 C7.39 2.79, 9.55 5, 9.68 6.53 C9.81 8.07, 7.88 9.72, 7.17 10.85 C6.46 11.97, 6.23 12.86, 5.41 13.27 C4.6 13.67, 3.03 13.42, 2.26 13.27 C1.49 13.13, 1.32 13.63, 0.81 12.4 C0.31 11.17, -0.91 7.86, -0.78 5.9 C-0.64 3.94, 0.6 1.68, 1.63 0.62 C2.67 -0.44, 5 -0.37, 5.44 -0.45 C5.87 -0.54, 4.55 -0.29, 4.23 0.12" stroke="#000000" stroke-width="1" fill="none"></path></g><g stroke-linecap="round" transform="translate(1251.8341240922864 332.083381809541) rotate(0 74.74807079081643 15.328125)"><path d="M7.66 0 M7.66 0 C48.48 -0.14, 93.58 0.73, 141.83 0 M7.66 0 C49.58 0.01, 89.81 -0.07, 141.83 0 M141.83 0 C148.57 -1.73, 148.45 1.65, 149.5 7.66 M141.83 0 C147.91 -1.4, 150.58 2.37, 149.5 7.66 M149.5 7.66 C150.48 13.78, 150.73 17.18, 149.5 22.99 M149.5 7.66 C149.44 13.36, 149.32 19.2, 149.5 22.99 M149.5 22.99 C149.77 29.67, 148.26 29.36, 141.83 30.66 M149.5 22.99 C150.2 27.23, 146.26 29.46, 141.83 30.66 M141.83 30.66 C106.63 31.43, 73.92 30.19, 7.66 30.66 M141.83 30.66 C89.51 30.37, 38.1 31.01, 7.66 30.66 M7.66 30.66 C2.3 29.68, -0.78 26.44, 0 22.99 M7.66 30.66 C2.75 32.58, -2.05 27.32, 0 22.99 M0 22.99 C1.02 18.16, -1.05 10.25, 0 7.66 M0 22.99 C-0.01 20.17, -0.23 16.01, 0 7.66 M0 7.66 C0.33 0.58, 3.69 -0.93, 7.66 0 M0 7.66 C-1.82 0.93, 3.63 -1.56, 7.66 0" stroke="#000000" stroke-width="1" fill="none"></path></g><g transform="translate(1443.345147689225 335.9599474983165) rotate(0 69.5 9)"><text x="0" y="13" font-family="Virgil, Segoe UI Emoji" font-size="14.451013368009546px" fill="#000000" text-anchor="start" style="white-space: pre;" direction="ltr">Answered Questions</text></g><g stroke-linecap="round" transform="translate(1437.4610533014702 330.056038059541) rotate(0 74.74807079081643 15.328125)"><path d="M7.66 0 M7.66 0 C60.74 1.2, 111.22 -2.06, 141.83 0 M7.66 0 C54.32 -0.34, 103.47 -1.86, 141.83 0 M141.83 0 C145.89 -0.9, 150.34 1.33, 149.5 7.66 M141.83 0 C148.02 -0.18, 150.36 2.08, 149.5 7.66 M149.5 7.66 C150.87 10.17, 150.9 14.2, 149.5 22.99 M149.5 7.66 C149.33 10.72, 149.59 14.9, 149.5 22.99 M149.5 22.99 C150.81 26.81, 147.55 29.9, 141.83 30.66 M149.5 22.99 C148.82 26.91, 145.89 30.84, 141.83 30.66 M141.83 30.66 C89.48 28.63, 38.24 29.73, 7.66 30.66 M141.83 30.66 C101.21 30.33, 58.75 29.61, 7.66 30.66 M7.66 30.66 C1.78 28.99, 0.17 29.77, 0 22.99 M7.66 30.66 C0.5 29.87, 1.55 27.92, 0 22.99 M0 22.99 C-1.17 17.96, -1.17 14.82, 0 7.66 M0 22.99 C-0.32 18.89, 0.15 13.88, 0 7.66 M0 7.66 C1.13 1.62, 0.97 -1.41, 7.66 0 M0 7.66 C1.08 0.99, 0.3 -0.81, 7.66 0" stroke="#000000" stroke-width="1" fill="none"></path></g><g stroke-linecap="round"><g transform="translate(1252.2247490922864 331.899788059541) rotate(0 -0.584608246474545 39.93059239494613)"><path d="M0.83 1.12 C0.79 14.04, -0.88 65.04, -1.11 78.09 M-0.19 0.67 C-0.3 13.66, -1.87 66.41, -2 79.19" stroke="#000000" stroke-width="1" fill="none"></path></g></g><mask></mask><g stroke-linecap="round"><g transform="translate(1400.6544365922864 329.122444309541) rotate(0 0.38936851671701334 23.507121879658655)"><path d="M1.12 0.11 C0.9 7.95, -0.66 39.89, -0.75 47.89 M0.26 -0.88 C0.36 6.55, 1.55 38.25, 1.53 46.11" stroke="#000000" stroke-width="1" fill="none"></path></g></g><mask></mask><g stroke-linecap="round" transform="translate(1248.865234375 375.8974609375) rotate(0 174.337890625 197.09765625)"><path d="M32 0 M32 0 C105.58 -1.86, 177.37 -1.76, 316.68 0 M32 0 C107.42 -0.48, 184.03 -0.47, 316.68 0 M316.68 0 C336.33 0.84, 350.12 8.99, 348.68 32 M316.68 0 C336.95 -1.08, 346.65 8.69, 348.68 32 M348.68 32 C348.59 135.87, 349.15 237.67, 348.68 362.2 M348.68 32 C349.23 112.94, 349.04 193.25, 348.68 362.2 M348.68 362.2 C347.91 382.66, 338.59 393.53, 316.68 394.2 M348.68 362.2 C347.68 382.01, 339.96 396.21, 316.68 394.2 M316.68 394.2 C216.58 392.95, 115.07 392.77, 32 394.2 M316.68 394.2 C254.37 392.94, 192.88 392.16, 32 394.2 M32 394.2 C9.84 395.02, 1.98 382.41, 0 362.2 M32 394.2 C11.01 395.04, 2.22 382.49, 0 362.2 M0 362.2 C0.34 255.04, 0.32 149.47, 0 32 M0 362.2 C0.85 266.55, 1.46 170.42, 0 32 M0 32 C1.33 12.03, 11.71 0.31, 32 0 M0 32 C-0.11 9.23, 10.62 0.33, 32 0" stroke="#000000" stroke-width="1" fill="none"></path></g><g stroke-linecap="round"><g transform="translate(780.25 444.1708984375) rotate(0 -172.6300930230086 -7.629454276361457)"><path d="M-0.35 -0.91 C-58.35 -3.82, -289.35 -14.07, -346.93 -16.48 M1.66 1.22 C-56.05 -1.59, -286.67 -12, -344.68 -15.09" stroke="#000000" stroke-width="1" fill="none"></path></g><g transform="translate(780.25 444.1708984375) rotate(0 -172.6300930230086 -7.629454276361457)"><path d="M-317.54 -25.46 C-327.5 -20.22, -336.78 -18.36, -345.99 -14.49 M-316.23 -24.71 C-325.23 -20.89, -333.8 -18.08, -345.34 -14.94" stroke="#000000" stroke-width="1" fill="none"></path></g><g transform="translate(780.25 444.1708984375) rotate(0 -172.6300930230086 -7.629454276361457)"><path d="M-318.54 -4.96 C-328.28 -7.64, -337.18 -13.72, -345.99 -14.49 M-317.23 -4.21 C-325.77 -6.46, -334.05 -9.72, -345.34 -14.94" stroke="#000000" stroke-width="1" fill="none"></path></g></g><mask></mask><g transform="translate(10 414.2880859375) rotate(0 201 30)"><text x="0" y="14" font-family="Virgil, Segoe UI Emoji" font-size="16px" fill="#000000" text-anchor="start" style="white-space: pre;" direction="ltr">Unanswered qns must be flagged w/ yellow accents</text><text x="0" y="34" font-family="Virgil, Segoe UI Emoji" font-size="16px" fill="#000000" text-anchor="start" style="white-space: pre;" direction="ltr">Whereas answered qns must be flagged w/ </text><text x="0" y="54" font-family="Virgil, Segoe UI Emoji" font-size="16px" fill="#000000" text-anchor="start" style="white-space: pre;" direction="ltr">red accents</text></g><g stroke-linecap="round" transform="translate(1750.666015625 151.9713134765625) rotate(0 193.888671875 312.912109375)"><path d="M32 0 M32 0 C123.17 0.75, 217.26 1.03, 355.78 0 M32 0 C110.05 -0.58, 189.19 0.01, 355.78 0 M355.78 0 C376.99 -1.72, 388.68 9.94, 387.78 32 M355.78 0 C378.94 -0.36, 387.54 11.77, 387.78 32 M387.78 32 C387.31 246.8, 386.95 459.76, 387.78 593.82 M387.78 32 C387.15 178.29, 387.36 325.14, 387.78 593.82 M387.78 593.82 C389.42 617.14, 375.47 623.83, 355.78 625.82 M387.78 593.82 C385.92 614.46, 378.63 624.62, 355.78 625.82 M355.78 625.82 C278.7 627.51, 200.8 627.46, 32 625.82 M355.78 625.82 C265.76 626.66, 176.12 626.9, 32 625.82 M32 625.82 C10.84 625.77, 0.13 613.96, 0 593.82 M32 625.82 C11.4 625.56, 0.35 617.16, 0 593.82 M0 593.82 C0.5 382.9, 1.37 171.25, 0 32 M0 593.82 C0.31 437.75, 0.62 281.23, 0 32 M0 32 C0.09 11.83, 11.72 0.59, 32 0 M0 32 C-1 10.55, 12.05 -1.32, 32 0" stroke="#000000" stroke-width="1" fill="none"></path></g><g transform="translate(1868.396484375 99.7056884765625) rotate(0 70.5 12.5)"><text x="0" y="18" font-family="Virgil, Segoe UI Emoji" font-size="20px" fill="#000000" text-anchor="start" style="white-space: pre;" direction="ltr">Tutor Qn View</text></g><g stroke-linecap="round"><g transform="translate(1801.515625 183.5240478515625) rotate(0 -15.36647595462864 -0.035336271175168577)"><path d="M-0.1 0.54 C-5.18 0.55, -24.9 -0.56, -30.18 -0.75 M-1.61 -0.23 C-6.79 0.05, -25.42 0.52, -30.63 0.68" stroke="#000000" stroke-width="1" fill="none"></path></g><g transform="translate(1801.515625 183.5240478515625) rotate(0 -15.36647595462864 -0.035336271175168577)"><path d="M-15.48 -3.84 C-21.19 -4.05, -25.68 -2.35, -30.74 -0.81 M-15.93 -5.82 C-21.52 -2.97, -27.63 -0.39, -30.17 1.15" stroke="#000000" stroke-width="1" fill="none"></path></g><g transform="translate(1801.515625 183.5240478515625) rotate(0 -15.36647595462864 -0.035336271175168577)"><path d="M-15.18 6.8 C-20.92 3.12, -25.5 1.36, -30.74 -0.81 M-15.63 4.82 C-21.41 3.52, -27.63 1.96, -30.17 1.15" stroke="#000000" stroke-width="1" fill="none"></path></g></g><mask></mask><g stroke-linecap="round" transform="translate(1784.22265625 239.4029541015625) rotate(0 165.47265625 109.421875)"><path d="M32 0 M32 0 C110.68 -0.37, 190.76 -1.38, 298.95 0 M32 0 C119.33 -0.24, 206.16 -1.42, 298.95 0 M298.95 0 C320.69 -0.42, 331.29 11.08, 330.95 32 M298.95 0 C321.05 -0.62, 331.2 11.98, 330.95 32 M330.95 32 C330.04 62.3, 332.89 97.44, 330.95 186.84 M330.95 32 C330.93 69.29, 330.16 106.39, 330.95 186.84 M330.95 186.84 C329.72 209.77, 321.58 219.91, 298.95 218.84 M330.95 186.84 C329.64 210.11, 320.36 217.98, 298.95 218.84 M298.95 218.84 C199.83 217.52, 96.39 216.78, 32 218.84 M298.95 218.84 C222.57 217.49, 148.17 216.77, 32 218.84 M32 218.84 C9.53 219.26, 0.55 209.49, 0 186.84 M32 218.84 C12.39 220.11, 1.53 210.1, 0 186.84 M0 186.84 C-0.86 143.17, 1.26 100.87, 0 32 M0 186.84 C-0.17 142.88, -0.32 98.84, 0 32 M0 32 C0.32 8.69, 10.58 1.09, 32 0 M0 32 C-1.9 12.74, 10.07 -1.21, 32 0" stroke="#000000" stroke-width="1" fill="none"></path></g><g transform="translate(1819.6328125 170.3092041015625) rotate(0 39 12.5)"><text x="0" y="18" font-family="Virgil, Segoe UI Emoji" font-size="20px" fill="#000000" text-anchor="start" style="white-space: pre;" direction="ltr">Qn title</text></g><g transform="translate(1784.875 477.9498291015625) rotate(0 54.5 10)"><text x="0" y="14" font-family="Virgil, Segoe UI Emoji" font-size="16px" fill="#000000" text-anchor="start" style="white-space: pre;" direction="ltr">Qn description</text></g><g stroke-linecap="round"><g transform="translate(1790.78515625 246.8992919921875) rotate(0 162.17629796375513 102.61314905251376)"><path d="M0.2 -0.4 C54.24 33.79, 269.4 171.23, 323.38 205.32 M-1.15 -1.66 C53.32 32.73, 271.48 172.47, 325.51 206.89" stroke="#000000" stroke-width="1" fill="none"></path></g></g><mask></mask><g stroke-linecap="round"><g transform="translate(1790.859375 450.8758544921875) rotate(0 162.47971519082785 -102.53442979902027)"><path d="M-0.94 1.01 C53.43 -33.28, 271.22 -171.57, 325.9 -206.08 M0.76 0.5 C54.99 -33.64, 270.5 -170.69, 324.85 -204.96" stroke="#000000" stroke-width="1" fill="none"></path></g></g><mask></mask><g stroke-linecap="round"><g transform="translate(2060.1484375 339.1649169921875) rotate(0 159.52316285269808 -70.8388542351102)"><path d="M0.83 1.07 C22.57 -22.29, 77.14 -123.25, 130.2 -139.6 C183.27 -155.94, 287.53 -103.76, 319.24 -96.98 M-0.19 0.59 C21.94 -22.62, 79.32 -121.47, 132.37 -138.02 C185.42 -154.58, 286.69 -105.35, 318.11 -98.73" stroke="#000000" stroke-width="1" fill="none"></path></g><g transform="translate(2060.1484375 339.1649169921875) rotate(0 159.52316285269808 -70.8388542351102)"><path d="M289.91 -99.56 C296.59 -99.43, 306.72 -97.7, 316.7 -98.95 M288.38 -97.91 C295.47 -98.77, 300.92 -98.97, 318.85 -98.39" stroke="#000000" stroke-width="1" fill="none"></path></g><g transform="translate(2060.1484375 339.1649169921875) rotate(0 159.52316285269808 -70.8388542351102)"><path d="M296.35 -119.04 C301.33 -113.44, 309.67 -106.28, 316.7 -98.95 M294.83 -117.4 C300.67 -113.89, 304.69 -109.78, 318.85 -98.39" stroke="#000000" stroke-width="1" fill="none"></path></g></g><mask></mask><g transform="translate(2410.828125 222.3367919921875) rotate(0 139.5 20)"><text x="0" y="14" font-family="Virgil, Segoe UI Emoji" font-size="16px" fill="#000000" text-anchor="start" style="white-space: pre;" direction="ltr">1. Question Image (able to zoom in)</text><text x="0" y="34" font-family="Virgil, Segoe UI Emoji" font-size="16px" fill="#000000" text-anchor="start" style="white-space: pre;" direction="ltr">2. Able to tag multiple images</text></g><g stroke-linecap="round" transform="translate(1910.71484375 436.5518798828125) rotate(0 3.8515625 4.87109375)"><path d="M2.58 -0.75 C3.32 -1.06, 4.53 0.15, 5.28 0.88 C6.02 1.62, 6.8 2.7, 7.06 3.64 C7.31 4.58, 7.01 5.77, 6.8 6.54 C6.6 7.31, 6.38 7.64, 5.83 8.26 C5.28 8.88, 4.4 10.35, 3.51 10.27 C2.63 10.18, 1.12 8.77, 0.53 7.75 C-0.07 6.72, -0.02 5.23, -0.06 4.1 C-0.09 2.97, -0.33 1.68, 0.32 0.99 C0.98 0.29, 3.02 0.09, 3.88 -0.09 C4.74 -0.26, 5.42 -0.13, 5.48 -0.07 M3.43 1.11 C4.16 1.08, 4.74 0.67, 5.54 1.01 C6.35 1.35, 7.89 2.11, 8.28 3.14 C8.67 4.16, 8.3 6.05, 7.88 7.18 C7.45 8.3, 6.54 9.7, 5.72 9.88 C4.9 10.06, 3.77 8.46, 2.95 8.24 C2.12 8.02, 1.18 9.09, 0.74 8.56 C0.31 8.03, 0.46 5.97, 0.34 5.08 C0.22 4.18, -0.16 3.99, 0.03 3.17 C0.23 2.34, 1.2 0.84, 1.5 0.12 C1.8 -0.6, 1.56 -1.49, 1.85 -1.16" stroke="#000000" stroke-width="1" fill="none"></path></g><g stroke-linecap="round" transform="translate(1949.96484375 436.1221923828125) rotate(0 3.8515625 4.87109375)"><path d="M4.96 -0.5 C5.44 -0.48, 5.11 0.21, 5.57 1.07 C6.04 1.93, 7.55 3.6, 7.73 4.64 C7.92 5.68, 7.08 6.6, 6.69 7.29 C6.31 7.99, 6.19 8.56, 5.44 8.8 C4.68 9.04, 3.16 8.99, 2.15 8.73 C1.13 8.46, -0.45 8.12, -0.63 7.22 C-0.82 6.32, 0.64 4.38, 1.04 3.31 C1.43 2.24, 1.06 1.33, 1.74 0.79 C2.41 0.26, 4.26 0.17, 5.08 0.08 C5.89 -0.02, 6.52 0.1, 6.64 0.23 M4.08 0.36 C5.02 0.94, 5.81 2.62, 6.46 3.31 C7.12 4, 8.16 3.63, 8 4.51 C7.85 5.38, 5.99 7.54, 5.53 8.55 C5.06 9.56, 5.81 10.62, 5.23 10.57 C4.64 10.52, 2.78 8.73, 1.99 8.25 C1.2 7.78, 0.79 8.8, 0.47 7.72 C0.15 6.63, -0.04 2.75, 0.07 1.73 C0.19 0.71, 0.23 1.9, 1.16 1.59 C2.09 1.28, 5.23 0.04, 5.65 -0.13 C6.07 -0.3, 3.97 0.31, 3.68 0.57" stroke="#000000" stroke-width="1" fill="none"></path></g><g stroke-linecap="round" transform="translate(1931.66015625 435.3839111328125) rotate(0 3.8515625 4.87109375)"><path d="M4.94 -0.55 C5.67 -0.32, 6.51 1.77, 6.98 2.83 C7.45 3.89, 7.99 4.69, 7.78 5.79 C7.57 6.89, 6.55 8.79, 5.71 9.43 C4.88 10.07, 3.62 9.99, 2.76 9.65 C1.91 9.3, 0.99 7.91, 0.58 7.34 C0.17 6.77, 0.34 7.09, 0.3 6.23 C0.27 5.38, -0.03 3.2, 0.38 2.2 C0.79 1.19, 1.82 0.29, 2.74 0.21 C3.66 0.13, 5.36 1.36, 5.9 1.72 C6.44 2.09, 5.97 2.4, 5.99 2.4 M2.37 0.11 C3.48 -0.25, 5.5 0.32, 6.17 0.43 C6.85 0.54, 6.08 -0.16, 6.4 0.76 C6.73 1.68, 7.94 4.7, 8.13 5.97 C8.31 7.24, 8.29 7.71, 7.53 8.38 C6.77 9.05, 4.3 9.93, 3.56 9.99 C2.82 10.05, 3.87 9.51, 3.08 8.75 C2.29 7.98, -0.87 6.2, -1.16 5.41 C-1.45 4.61, 0.83 4.93, 1.33 3.96 C1.84 2.98, 1.68 0.24, 1.87 -0.43 C2.07 -1.1, 2.31 -0.27, 2.52 -0.05" stroke="#000000" stroke-width="1" fill="none"></path></g><g stroke-linecap="round" transform="translate(1970.2265625 436.5714111328125) rotate(0 3.8515625 4.87109375)"><path d="M4.79 0.64 C5.33 0.89, 5.8 2.31, 6.34 3.12 C6.87 3.94, 8.1 4.55, 8 5.53 C7.91 6.52, 6.62 8.27, 5.79 9.05 C4.96 9.83, 3.71 10.4, 3.05 10.21 C2.38 10.02, 2.34 8.61, 1.81 7.93 C1.28 7.25, 0.19 7.13, -0.13 6.11 C-0.45 5.08, -0.59 2.65, -0.12 1.76 C0.34 0.87, 1.75 1.11, 2.65 0.77 C3.55 0.44, 4.72 -0.34, 5.29 -0.25 C5.86 -0.15, 6.15 0.99, 6.05 1.34 M5.48 1.55 C6.39 1.55, 5.97 0.12, 6.28 0.86 C6.59 1.59, 7.19 4.73, 7.34 5.98 C7.48 7.22, 7.52 7.62, 7.14 8.34 C6.76 9.05, 5.96 9.97, 5.07 10.27 C4.18 10.57, 2.76 10.99, 1.8 10.12 C0.85 9.26, -0.53 6.35, -0.65 5.07 C-0.78 3.78, 0.48 3.17, 1.06 2.39 C1.63 1.62, 2.06 0.95, 2.81 0.4 C3.57 -0.15, 5.21 -0.92, 5.59 -0.91 C5.98 -0.9, 5.35 0.41, 5.13 0.47" stroke="#000000" stroke-width="1" fill="none"></path></g><g stroke-linecap="round"><g transform="translate(1908.3851576125976 486.96658564657) rotate(0 217.55130870614744 -188.10805157749544)"><path d="M0.31 0.77 C62.54 1.49, 299.76 71.92, 372.39 3.41 C445.02 -65.09, 425.67 -341.39, 436.09 -410.25 M-0.99 0.12 C61.15 1.08, 298.48 72.88, 371.29 4.62 C444.09 -63.64, 425.22 -340.53, 435.84 -409.46" stroke="#000000" stroke-width="1" fill="none"></path></g><g transform="translate(1908.3851576125976 486.96658564657) rotate(0 217.55130870614744 -188.10805157749544)"><path d="M446.08 -381.31 C442.05 -385.36, 439.5 -393.54, 434.99 -409.31 M444.44 -380.95 C443.46 -388.17, 440.07 -393.92, 435.69 -410.38" stroke="#000000" stroke-width="1" fill="none"></path></g><g transform="translate(1908.3851576125976 486.96658564657) rotate(0 217.55130870614744 -188.10805157749544)"><path d="M425.58 -382.24 C425.98 -386.15, 427.85 -394.12, 434.99 -409.31 M423.94 -381.88 C427.76 -388.95, 429.17 -394.48, 435.69 -410.38" stroke="#000000" stroke-width="1" fill="none"></path></g></g><mask></mask><g transform="translate(2339.23828125 42.4893798828125) rotate(0 267 10)"><text x="0" y="14" font-family="Virgil, Segoe UI Emoji" font-size="16px" fill="#000000" text-anchor="start" style="white-space: pre;" direction="ltr">Qn description must include topic tags, what i dont understand etc</text></g><g stroke-linecap="round" transform="translate(1781.66796875 702.6690673828125) rotate(0 72.5 26.296875)"><path d="M13.15 0 M13.15 0 C45.03 0.71, 74.17 -1.76, 131.85 0 M13.15 0 C36.47 -0.01, 61.85 0.2, 131.85 0 M131.85 0 C140.75 -0.44, 146.81 5.25, 145 13.15 M131.85 0 C140.42 -1.1, 147.17 5.89, 145 13.15 M145 13.15 C144.55 19.43, 145.44 22.14, 145 39.45 M145 13.15 C145.37 23.99, 144.23 32.94, 145 39.45 M145 39.45 C146.28 49.91, 141.94 52.19, 131.85 52.59 M145 39.45 C144.33 49.52, 138.73 51.79, 131.85 52.59 M131.85 52.59 C99.57 52.43, 64.91 54.16, 13.15 52.59 M131.85 52.59 C103.26 54, 72.18 52.78, 13.15 52.59 M13.15 52.59 C3.19 50.99, 0.62 47.03, 0 39.45 M13.15 52.59 C2.32 51.72, 0.3 47.82, 0 39.45 M0 39.45 C-1.43 33, 0.9 26.28, 0 13.15 M0 39.45 C1.12 28.96, 0.24 20.54, 0 13.15 M0 13.15 C1.91 4.79, 4.94 -0.51, 13.15 0 M0 13.15 C-1.15 2.39, 2.72 1.13, 13.15 0" stroke="#000000" stroke-width="1" fill="none"></path></g><g transform="translate(1816.751953125 708.9659423828125) rotate(0 37 20)"><text x="37" y="14" font-family="Virgil, Segoe UI Emoji" font-size="16px" fill="#000000" text-anchor="middle" style="white-space: pre;" direction="ltr">Mark as </text><text x="37" y="34" font-family="Virgil, Segoe UI Emoji" font-size="16px" fill="#000000" text-anchor="middle" style="white-space: pre;" direction="ltr">answered</text></g><g stroke-linecap="round" transform="translate(1972.33984375 701.8175048828125) rotate(0 69.376953125 25.341796875)"><path d="M12.67 0 M12.67 0 C52.04 0.21, 94.98 -2.63, 126.08 0 M12.67 0 C45.3 0.14, 78.76 -0.91, 126.08 0 M126.08 0 C134.06 0, 137.55 2.88, 138.75 12.67 M126.08 0 C135.2 -0.5, 140.83 3.31, 138.75 12.67 M138.75 12.67 C138.77 23.23, 138.72 30.03, 138.75 38.01 M138.75 12.67 C139.38 23.2, 138.66 32.88, 138.75 38.01 M138.75 38.01 C137.94 46.48, 133.71 50.74, 126.08 50.68 M138.75 38.01 C138.03 48.35, 136.46 52.27, 126.08 50.68 M126.08 50.68 C80.17 49.67, 37.34 51.97, 12.67 50.68 M126.08 50.68 C84.97 49.14, 42.16 49.29, 12.67 50.68 M12.67 50.68 C2.87 48.91, -0.05 46.03, 0 38.01 M12.67 50.68 C4.74 51.6, 0.38 48.03, 0 38.01 M0 38.01 C0.54 29.26, 2.14 18.51, 0 12.67 M0 38.01 C-0.91 32.17, 0.23 25.55, 0 12.67 M0 12.67 C-0.11 2.87, 2.73 1.89, 12.67 0 M0 12.67 C-1.83 4.96, 3.42 -0.03, 12.67 0" stroke="#000000" stroke-width="1" fill="none"></path></g><g transform="translate(2001.26171875 714.9307861328125) rotate(0 41.5 10)"><text x="0" y="14" font-family="Virgil, Segoe UI Emoji" font-size="16px" fill="#000000" text-anchor="start" style="white-space: pre;" direction="ltr">Open Chat</text></g><g stroke-linecap="round" transform="translate(1788.24609375 199.328125) rotate(0 78.162109375 14.328125)"><path d="M7.16 0 M7.16 0 C51.99 0.84, 98.89 -1.37, 149.16 0 M7.16 0 C47.47 -0.24, 88.55 -0.27, 149.16 0 M149.16 0 C153.3 -0.59, 156.01 0.62, 156.32 7.16 M149.16 0 C155.11 -1.5, 156.69 2.99, 156.32 7.16 M156.32 7.16 C157.27 11.31, 156.12 17.04, 156.32 21.49 M156.32 7.16 C155.88 11.61, 156.22 17.41, 156.32 21.49 M156.32 21.49 C155.95 26.67, 154.13 26.75, 149.16 28.66 M156.32 21.49 C156.96 24.39, 151.94 30.05, 149.16 28.66 M149.16 28.66 C92.11 30.7, 37.61 30.52, 7.16 28.66 M149.16 28.66 C93.06 28.68, 37.38 27.86, 7.16 28.66 M7.16 28.66 C2.07 29.6, -1.77 27.1, 0 21.49 M7.16 28.66 C2.28 30.18, 1.85 26.19, 0 21.49 M0 21.49 C0.72 16.6, -0.01 13.46, 0 7.16 M0 21.49 C0.16 16.26, -0.03 11.63, 0 7.16 M0 7.16 C-1.85 1.99, 4.01 1.69, 7.16 0 M0 7.16 C-1.93 3.84, 1.55 -1.63, 7.16 0" stroke="#000000" stroke-width="1" fill="none"></path></g><g transform="translate(1798.5234375 203.9453125) rotate(0 41.5 10)"><text x="0" y="14" font-family="Virgil, Segoe UI Emoji" font-size="16px" fill="#000000" text-anchor="start" style="white-space: pre;" direction="ltr">Qn status</text></g><g stroke-linecap="round"><g transform="translate(1784.5039062500005 217.12109375) rotate(0 -47.202355723045 -68.26396087215551)"><path d="M-0.94 0.96 C-15.84 -1, -76.72 11.24, -89.85 -12.14 C-102.98 -35.51, -81.34 -118.37, -79.7 -139.28 M0.77 0.41 C-14.24 -1.36, -77.13 12.17, -90.73 -10.99 C-104.32 -34.14, -82.55 -117.06, -80.8 -138.54" stroke="#000000" stroke-width="1" fill="none"></path></g><g transform="translate(1784.5039062500005 217.12109375) rotate(0 -47.202355723045 -68.26396087215551)"><path d="M-73.76 -108.82 C-77.92 -117.92, -79.96 -126.2, -79.83 -139.19 M-75.8 -108.46 C-76.3 -116.02, -78.78 -123.89, -80.01 -137.6" stroke="#000000" stroke-width="1" fill="none"></path></g><g transform="translate(1784.5039062500005 217.12109375) rotate(0 -47.202355723045 -68.26396087215551)"><path d="M-93.99 -112.22 C-92.82 -120.26, -89.53 -127.64, -79.83 -139.19 M-96.04 -111.86 C-91.55 -118.5, -89.01 -125.53, -80.01 -137.6" stroke="#000000" stroke-width="1" fill="none"></path></g></g><mask></mask><g transform="translate(1662.70703125 10) rotate(0 89.5 30)"><text x="0" y="14" font-family="Virgil, Segoe UI Emoji" font-size="16px" fill="#000000" text-anchor="start" style="white-space: pre;" direction="ltr">1. Answered (Green)</text><text x="0" y="34" font-family="Virgil, Segoe UI Emoji" font-size="16px" fill="#000000" text-anchor="start" style="white-space: pre;" direction="ltr">2. Not Answered (Red)</text><text x="0" y="54" font-family="Virgil, Segoe UI Emoji" font-size="16px" fill="#000000" text-anchor="start" style="white-space: pre;" direction="ltr">3. Working (Yellow)</text></g><g transform="translate(1784.75 507.52685546875) rotate(0 34 10)"><text x="0" y="14" font-family="Virgil, Segoe UI Emoji" font-size="16px" fill="#000000" text-anchor="start" style="white-space: pre;" direction="ltr">Qn Tags</text></g><g stroke-linecap="round" transform="translate(1777.3032767808259 880.3263494988973) rotate(0 188.6484375 317.380859375)"><path d="M32 0 M32 0 C105.35 -1.66, 181.03 -1.14, 345.3 0 M32 0 C121.1 1.71, 209.77 1.62, 345.3 0 M345.3 0 C367 1.14, 375.68 9.91, 377.3 32 M345.3 0 C368.58 1.71, 377.67 12.29, 377.3 32 M377.3 32 C377.12 203.75, 377.87 375.47, 377.3 602.76 M377.3 32 C376.38 152.16, 376.38 273.41, 377.3 602.76 M377.3 602.76 C379.3 623.59, 365.73 635.78, 345.3 634.76 M377.3 602.76 C376.39 625.62, 367.29 633.41, 345.3 634.76 M345.3 634.76 C235.39 635.14, 127.42 635.22, 32 634.76 M345.3 634.76 C263.97 633.83, 184.07 634.86, 32 634.76 M32 634.76 C9.59 633.28, -1.31 625.59, 0 602.76 M32 634.76 C10.95 636.14, -0.75 623.68, 0 602.76 M0 602.76 C0.43 459.25, 1.83 316.13, 0 32 M0 602.76 C-1.04 421.6, -1.12 240.68, 0 32 M0 32 C0.44 9.93, 9.81 1.17, 32 0 M0 32 C1.45 9.83, 12.15 2.25, 32 0" stroke="#000000" stroke-width="1" fill="none"></path></g><g transform="translate(1837.7681205308259 838.1310369988973) rotate(0 124 12.5)"><text x="0" y="18" font-family="Virgil, Segoe UI Emoji" font-size="20px" fill="#000000" text-anchor="start" style="white-space: pre;" direction="ltr">Qn Tutor Student Chat </text></g><g stroke-linecap="round"><g transform="translate(1831.9399955308259 906.5308172723348) rotate(0 -15.224544160691948 1.104142224802672)"><path d="M-0.27 0.67 C-5.48 1.18, -25.92 2.1, -31.03 2.23 M1.78 -0.02 C-3.64 0.22, -26.62 0.04, -32.23 0.5" stroke="#000000" stroke-width="1" fill="none"></path></g><g transform="translate(1831.9399955308259 906.5308172723348) rotate(0 -15.224544160691948 1.104142224802672)"><path d="M-17.17 -5.78 C-21.6 -3.88, -27.11 -0.9, -31.74 1.08 M-18.66 -4.62 C-21.44 -3.9, -24.56 -2.78, -32.31 0.27" stroke="#000000" stroke-width="1" fill="none"></path></g><g transform="translate(1831.9399955308259 906.5308172723348) rotate(0 -15.224544160691948 1.104142224802672)"><path d="M-16.85 4.68 C-21.31 3.27, -26.92 2.95, -31.74 1.08 M-18.35 5.84 C-21.14 4.29, -24.33 3.13, -32.31 0.27" stroke="#000000" stroke-width="1" fill="none"></path></g></g><mask></mask><g transform="translate(1849.2798392808259 891.9526922723348) rotate(0 41 12.5)"><text x="0" y="18" font-family="Virgil, Segoe UI Emoji" font-size="20px" fill="#000000" text-anchor="start" style="white-space: pre;" direction="ltr">Qn Title</text></g><g stroke-linecap="round" transform="translate(1791.8149955308259 944.3784735223348) rotate(0 88.76171875 26.046875)"><path d="M13.02 0 M13.02 0 C44.24 -0.89, 78.46 -0.34, 164.5 0 M13.02 0 C61.09 0.11, 108.42 0.38, 164.5 0 M164.5 0 C172.68 -1.61, 176.26 4.63, 177.52 13.02 M164.5 0 C174.61 -1.67, 177.25 2.96, 177.52 13.02 M177.52 13.02 C178.76 18.16, 176.27 27.84, 177.52 39.07 M177.52 13.02 C178.05 18.62, 177.35 24.48, 177.52 39.07 M177.52 39.07 C179.01 48.69, 174.64 50.6, 164.5 52.09 M177.52 39.07 C175.58 46.35, 172.95 53.85, 164.5 52.09 M164.5 52.09 C108.66 54.9, 53.11 52.52, 13.02 52.09 M164.5 52.09 C129.07 52.19, 94.05 51.65, 13.02 52.09 M13.02 52.09 C6.2 53.29, 0.45 45.78, 0 39.07 M13.02 52.09 C5.34 53.21, -1.02 46.2, 0 39.07 M0 39.07 C0.87 34.1, 0.92 28.73, 0 13.02 M0 39.07 C0.41 30.06, 0.65 22.42, 0 13.02 M0 13.02 C-0.96 6.07, 3.91 0.12, 13.02 0 M0 13.02 C-0.05 3.54, 6.32 -0.54, 13.02 0" stroke="#000000" stroke-width="1" fill="none"></path></g><g stroke-linecap="round" transform="translate(1792.0493705308259 1005.0620672723348) rotate(0 119.046875 106.634765625)"><path d="M32 0 M32 0 C82.13 -0.12, 130.62 -0.74, 206.09 0 M32 0 C71.42 -2.36, 111.75 -2.16, 206.09 0 M206.09 0 C225.59 -1.47, 236.41 8.73, 238.09 32 M206.09 0 C226.4 1.76, 239.44 10.75, 238.09 32 M238.09 32 C239 81.73, 238.37 129.24, 238.09 181.27 M238.09 32 C238.7 69.48, 237.26 108.96, 238.09 181.27 M238.09 181.27 C239.03 202.36, 226.91 212.72, 206.09 213.27 M238.09 181.27 C240.29 201.37, 226.96 212.92, 206.09 213.27 M206.09 213.27 C164.46 212.93, 118.13 214.81, 32 213.27 M206.09 213.27 C136.99 210.99, 70.02 210.99, 32 213.27 M32 213.27 C11.5 212.77, -0.14 203.72, 0 181.27 M32 213.27 C9.04 211.17, 0.49 204.07, 0 181.27 M0 181.27 C-1.37 139.6, -2.63 98.76, 0 32 M0 181.27 C1.5 141.1, 0.09 100.88, 0 32 M0 32 C-0.67 10.06, 10.78 1.66, 32 0 M0 32 C-1.41 11.85, 10.62 -0.02, 32 0" stroke="#000000" stroke-width="1" fill="none"></path></g><g stroke-linecap="round" transform="translate(1999.1860892808259 1233.8159735223348) rotate(0 68.03125 26.171875)"><path d="M13.09 0 M13.09 0 C55.08 1.23, 95.02 -1.37, 122.98 0 M13.09 0 C45.57 -1.09, 77.14 -0.83, 122.98 0 M122.98 0 C131.3 1.46, 136.04 4.19, 136.06 13.09 M122.98 0 C131.85 -0.77, 135.87 5.89, 136.06 13.09 M136.06 13.09 C135.37 22.19, 137.32 30.82, 136.06 39.26 M136.06 13.09 C135.81 19.88, 135.76 26.52, 136.06 39.26 M136.06 39.26 C137.36 46.54, 131.68 52.8, 122.98 52.34 M136.06 39.26 C134.97 49.22, 132.63 52.81, 122.98 52.34 M122.98 52.34 C81.39 51.13, 36.53 52.73, 13.09 52.34 M122.98 52.34 C96.92 53.16, 71.47 51.55, 13.09 52.34 M13.09 52.34 C6.29 52.63, -1.54 48.38, 0 39.26 M13.09 52.34 C6.48 51.61, -2.15 46.3, 0 39.26 M0 39.26 C-1.68 30.94, -0.54 25.47, 0 13.09 M0 39.26 C0.9 31.42, 0.59 25.69, 0 13.09 M0 13.09 C-0.21 5.95, 3.03 1.78, 13.09 0 M0 13.09 C-1.79 6.38, 2.27 -1.19, 13.09 0" stroke="#000000" stroke-width="1" fill="none"></path></g><g stroke-linecap="round"><g transform="translate(1776.7993705308259 933.0698797723348) rotate(0 188.93386467844243 0.1853267960126459)"><path d="M-0.92 -0.84 C62.14 -0.94, 315.66 -1.07, 378.79 -0.79 M0.8 1.33 C63.66 1.35, 314.6 0.58, 377.84 0.15" stroke="#000000" stroke-width="1" fill="none"></path></g></g><mask></mask><g stroke-linecap="round"><g transform="translate(1778.6274955308259 1309.0464422723348) rotate(0 188.30305126756434 0.5067878214125585)"><path d="M-0.36 -0.09 C62.33 0.24, 314.32 2.09, 376.97 2.2 M1.65 -1.19 C64.14 -1.19, 313.48 0.16, 376.19 0.61" stroke="#000000" stroke-width="1" fill="none"></path></g></g><mask></mask><g stroke-linecap="round" transform="translate(1787.4985892808259 1320.7612860223348) rotate(0 178.1484375 68.91015625)"><path d="M32 0 M32 0 C95.03 -0.02, 160.15 -1.43, 324.3 0 M32 0 C99.95 -1.86, 168.78 -1.49, 324.3 0 M324.3 0 C343.83 -1.41, 357.68 11.19, 356.3 32 M324.3 0 C343.79 -0.58, 358.36 11.26, 356.3 32 M356.3 32 C357.9 49.96, 354.54 68.83, 356.3 105.82 M356.3 32 C356.44 55.96, 355.59 80.79, 356.3 105.82 M356.3 105.82 C358.12 125.66, 343.98 138.6, 324.3 137.82 M356.3 105.82 C357.47 128.46, 347.65 135.61, 324.3 137.82 M324.3 137.82 C238.9 134.91, 153.03 136.67, 32 137.82 M324.3 137.82 C227.62 135.5, 130.74 135.39, 32 137.82 M32 137.82 C10.33 139.07, -0.55 128.04, 0 105.82 M32 137.82 C11.23 136.07, 0.94 126.32, 0 105.82 M0 105.82 C2.09 91.16, -1.41 77.22, 0 32 M0 105.82 C0.51 76.88, -0.92 46.63, 0 32 M0 32 C0.06 10.93, 9.63 -1.76, 32 0 M0 32 C-0.84 9.08, 10.53 -1.53, 32 0" stroke="#000000" stroke-width="1" fill="none"></path></g><g stroke-linecap="round"><g transform="translate(2024.0024955308259 1012.4644110223348) rotate(0 -111.12909180074939 99.94992989624848)"><path d="M0.41 0.45 C-36.71 33.58, -185.81 166, -222.67 199.1 M-0.83 -0.36 C-37.57 32.89, -183.69 166.88, -220.37 200.26" stroke="#000000" stroke-width="1" fill="none"></path></g></g><mask></mask><g stroke-linecap="round"><g transform="translate(1796.7954642808259 1016.9605047723348) rotate(0 112.49377695834733 95.7843494664412)"><path d="M0.26 0.37 C37.82 32.1, 188.68 159.24, 226.05 190.99 M-1.07 -0.47 C36.36 31.33, 188.17 160.02, 225.58 192.04" stroke="#000000" stroke-width="1" fill="none"></path></g></g><mask></mask><g stroke-linecap="round"><g transform="translate(1797.4556205308259 1449.6831610223348) rotate(0 169.96110425116967 -59.448880778253056)"><path d="M-0.52 0.86 C55.91 -19.14, 281.63 -99.59, 338.31 -119.75 M1.41 0.26 C58.22 -19.57, 284.2 -98.44, 340.44 -118.34" stroke="#000000" stroke-width="1" fill="none"></path></g></g><mask></mask><g stroke-linecap="round"><g transform="translate(1794.4634330308259 1327.5933172723348) rotate(0 169.98726528492762 60.96444373833947)"><path d="M-0.01 0.58 C56.74 20.66, 282.74 100.79, 339.35 121.05 M-1.47 -0.17 C55.72 19.99, 284.18 101.48, 341.44 122.09" stroke="#000000" stroke-width="1" fill="none"></path></g></g><mask></mask><g stroke-linecap="round" transform="translate(1880.7134330308259 1464.9565985223348) rotate(0 85.087890625 19.15234375)"><path d="M9.58 0 M9.58 0 C58.11 1.27, 109.83 0.49, 160.6 0 M9.58 0 C56.21 -1.08, 103.81 -0.04, 160.6 0 M160.6 0 C166.21 -0.06, 170.69 4.15, 170.18 9.58 M160.6 0 C168.86 1.28, 168.76 2.18, 170.18 9.58 M170.18 9.58 C170.6 13.86, 169.58 19.51, 170.18 28.73 M170.18 9.58 C169.81 12.95, 169.18 16.79, 170.18 28.73 M170.18 28.73 C168.4 36.11, 166.69 38.34, 160.6 38.3 M170.18 28.73 C170.43 34.5, 165.92 38.07, 160.6 38.3 M160.6 38.3 C129.49 35.67, 96.33 36.25, 9.58 38.3 M160.6 38.3 C110.02 37.83, 59.43 37.62, 9.58 38.3 M9.58 38.3 C3.4 40.07, 1.79 35.35, 0 28.73 M9.58 38.3 C5.07 40.58, 1.05 33.37, 0 28.73 M0 28.73 C-0.25 21.84, -0.53 17.46, 0 9.58 M0 28.73 C0.33 24.63, -0.46 20.61, 0 9.58 M0 9.58 C-0.11 2.68, 4.31 1.04, 9.58 0 M0 9.58 C-2.13 3.26, 4.07 0.32, 9.58 0" stroke="#000000" stroke-width="1" fill="none"></path></g><g stroke-linecap="round"><g transform="translate(2071.725151780826 1493.3276922723348) rotate(0 30.163749156391532 -12.825284803938985)"><path d="M0.64 -0.84 C9.92 -1.05, 45.73 2.17, 55.48 -2.28 C65.23 -6.73, 58.51 -23.66, 59.13 -27.51 M-0.48 1.34 C8.64 1.36, 44.57 3.54, 54.43 -1.14 C64.3 -5.81, 57.8 -22.34, 58.71 -26.73" stroke="#000000" stroke-width="1" fill="none"></path></g><g transform="translate(2071.725151780826 1493.3276922723348) rotate(0 30.163749156391532 -12.825284803938985)"><path d="M63.08 -15.5 C61.79 -17.83, 60.03 -20.95, 59.83 -27.94 M64.35 -15.07 C63.12 -18.39, 61.38 -21.3, 59.08 -27.11" stroke="#000000" stroke-width="1" fill="none"></path></g><g transform="translate(2071.725151780826 1493.3276922723348) rotate(0 30.163749156391532 -12.825284803938985)"><path d="M54.51 -14.79 C55.64 -17.37, 56.31 -20.69, 59.83 -27.94 M55.78 -14.36 C56.8 -17.83, 57.29 -20.92, 59.08 -27.11" stroke="#000000" stroke-width="1" fill="none"></path></g></g><mask></mask><g stroke-linecap="round" transform="translate(727.0234375 862.4014892578125) rotate(0 197.296875 332.3203125)"><path d="M32 0 M32 0 C107.23 0.79, 179.31 0.76, 362.59 0 M32 0 C142.52 1.47, 252.43 1.43, 362.59 0 M362.59 0 C382.47 -0.72, 396.24 8.94, 394.59 32 M362.59 0 C384.18 0.81, 394.36 12.35, 394.59 32 M394.59 32 C393.46 250.11, 392.66 469.22, 394.59 632.64 M394.59 32 C393.95 217.28, 393.48 403.36, 394.59 632.64 M394.59 632.64 C396.26 652.72, 383.9 663.36, 362.59 664.64 M394.59 632.64 C393.14 651.83, 385.77 663.06, 362.59 664.64 M362.59 664.64 C266.04 667.11, 169.68 666.5, 32 664.64 M362.59 664.64 C294.23 664.31, 224.83 664.79, 32 664.64 M32 664.64 C12.5 665.83, -0.17 654.47, 0 632.64 M32 664.64 C11.01 664.44, -0.27 654.9, 0 632.64 M0 632.64 C-0.06 494.57, -0.13 357.02, 0 32 M0 632.64 C0.28 464.63, 0.48 296.71, 0 32 M0 32 C-0.74 9.52, 10.77 -0.97, 32 0 M0 32 C0.84 8.52, 12.14 -1.07, 32 0" stroke="#000000" stroke-width="1" fill="none"></path></g><g transform="translate(827.16796875 821.0069580078125) rotate(0 105.5 12.5)"><text x="0" y="18" font-family="Virgil, Segoe UI Emoji" font-size="20px" fill="#000000" text-anchor="start" style="white-space: pre;" direction="ltr">Initial Authentication</text></g><g stroke-linecap="round" transform="translate(763.8671875 1009.4210205078125) rotate(0 159.60546875 35.71484375)"><path d="M17.86 0 M17.86 0 C79.25 -1.14, 144.01 -2.03, 301.35 0 M17.86 0 C86.75 0.12, 156.71 0.75, 301.35 0 M301.35 0 C314.27 0.59, 318.01 6.4, 319.21 17.86 M301.35 0 C315.12 -0.38, 319.88 6.72, 319.21 17.86 M319.21 17.86 C319.81 27.62, 320.31 34.72, 319.21 53.57 M319.21 17.86 C319.78 28.36, 318.63 40.37, 319.21 53.57 M319.21 53.57 C317.4 65.31, 315.06 70.11, 301.35 71.43 M319.21 53.57 C319.81 66.81, 315.23 69.77, 301.35 71.43 M301.35 71.43 C211.74 72.1, 122.77 72.13, 17.86 71.43 M301.35 71.43 C199 70.23, 97.88 69.99, 17.86 71.43 M17.86 71.43 C7.35 71.85, -1.45 63.65, 0 53.57 M17.86 71.43 C8.2 70.43, 0.57 63.37, 0 53.57 M0 53.57 C-0.39 46.2, -1 36.59, 0 17.86 M0 53.57 C0.79 43.04, -0.38 30.68, 0 17.86 M0 17.86 C1.33 6.02, 6.36 0.07, 17.86 0 M0 17.86 C-0.3 6.37, 4.74 -2.05, 17.86 0" stroke="#000000" stroke-width="1" fill="none"></path></g><g stroke-linecap="round" transform="translate(767.59375 1107.3780517578125) rotate(0 159.60546875 35.71484375)"><path d="M17.86 0 M17.86 0 C125.44 0.36, 230.32 3.25, 301.35 0 M17.86 0 C86.72 -2.19, 153.4 -2.58, 301.35 0 M301.35 0 C313.98 1.16, 319.47 4.16, 319.21 17.86 M301.35 0 C314.56 -2.19, 320.44 5.12, 319.21 17.86 M319.21 17.86 C317.21 25.24, 317.05 33.45, 319.21 53.57 M319.21 17.86 C319.68 29.53, 319.13 41.82, 319.21 53.57 M319.21 53.57 C318.11 66.92, 311.76 72.76, 301.35 71.43 M319.21 53.57 C318.5 64.74, 312.99 69.77, 301.35 71.43 M301.35 71.43 C243.28 71.85, 184.32 70.98, 17.86 71.43 M301.35 71.43 C212.36 72.69, 123.19 74.09, 17.86 71.43 M17.86 71.43 C5.62 73.13, 1.34 65.18, 0 53.57 M17.86 71.43 C6.01 71.02, -0.23 65.41, 0 53.57 M0 53.57 C1.07 42.73, 2.18 31.91, 0 17.86 M0 53.57 C-0.46 46.96, 0.53 38.97, 0 17.86 M0 17.86 C-1.83 7.04, 4.78 1.62, 17.86 0 M0 17.86 C2.18 4.45, 4.06 0.99, 17.86 0" stroke="#000000" stroke-width="1" fill="none"></path></g><g transform="translate(804.21875 912.3350830078125) rotate(0 118 17.5)"><text x="0" y="25" font-family="Virgil, Segoe UI Emoji" font-size="28px" fill="#000000" text-anchor="start" style="white-space: pre;" direction="ltr">Tutor Freelancer</text></g><g transform="translate(813.421875 1032.2843017578125) rotate(0 102 12.5)"><text x="0" y="18" font-family="Virgil, Segoe UI Emoji" font-size="20px" fill="#000000" text-anchor="start" style="white-space: pre;" direction="ltr">Continue with Google</text></g><g transform="translate(824.2109375 1130.4405517578125) rotate(0 94 12.5)"><text x="0" y="18" font-family="Virgil, Segoe UI Emoji" font-size="20px" fill="#000000" text-anchor="start" style="white-space: pre;" direction="ltr">Continue with Email</text></g><g stroke-linecap="round"><g transform="translate(1141.62109375 1152.01513671875) rotate(0 43.28728790762375 0.6427264514608169)"><path d="M-0.71 0.99 C13.5 0.88, 70.62 -0.03, 85.13 -0.08 M1.11 0.46 C15.7 0.48, 73.2 1.63, 87.29 1.31" stroke="#000000" stroke-width="1" fill="none"></path></g><g transform="translate(1141.62109375 1152.01513671875) rotate(0 43.28728790762375 0.6427264514608169)"><path d="M60.73 9.75 C66.64 9.01, 75.95 4.36, 86.04 0.1 M59.7 11.83 C68.64 7.4, 80.05 4.06, 87.49 1.62" stroke="#000000" stroke-width="1" fill="none"></path></g><g transform="translate(1141.62109375 1152.01513671875) rotate(0 43.28728790762375 0.6427264514608169)"><path d="M60.76 -10.78 C66.77 -5.63, 76.06 -4.4, 86.04 0.1 M59.74 -8.69 C68.63 -5.51, 80.02 -1.24, 87.49 1.62" stroke="#000000" stroke-width="1" fill="none"></path></g></g><mask></mask><g stroke-linecap="round" transform="translate(1271.4756490950053 863.15771484375) rotate(0 197.296875 332.3203125)"><path d="M32 0 M32 0 C141.02 -1.39, 249.1 -0.35, 362.59 0 M32 0 C135.37 -1.81, 237.11 -2.26, 362.59 0 M362.59 0 C385.76 -0.58, 395.3 10.52, 394.59 32 M362.59 0 C384.11 -0.64, 393.18 12.57, 394.59 32 M394.59 32 C393.46 248.37, 392.02 465.93, 394.59 632.64 M394.59 32 C392.76 233.5, 392.73 434.89, 394.59 632.64 M394.59 632.64 C392.95 654.29, 383.45 665.73, 362.59 664.64 M394.59 632.64 C395.66 654.22, 385.68 666.54, 362.59 664.64 M362.59 664.64 C286.6 664.99, 210.08 665.7, 32 664.64 M362.59 664.64 C263.82 665.17, 165.64 664.31, 32 664.64 M32 664.64 C11.2 666.21, 1.7 654.41, 0 632.64 M32 664.64 C11.31 665.4, -0.95 653.96, 0 632.64 M0 632.64 C-0.91 507.14, 0.5 379.98, 0 32 M0 632.64 C-1 450.18, -1.09 268.2, 0 32 M0 32 C-0.7 10.23, 11.78 1.19, 32 0 M0 32 C-2.18 11.57, 8.61 -1.02, 32 0" stroke="#000000" stroke-width="1" fill="none"></path></g><g transform="translate(1371.6201803450053 821.76318359375) rotate(0 105.5 12.5)"><text x="0" y="18" font-family="Virgil, Segoe UI Emoji" font-size="20px" fill="#000000" text-anchor="start" style="white-space: pre;" direction="ltr">Initial Authentication</text></g><g transform="translate(1348.8975240950053 913.09130859375) rotate(0 118 17.5)"><text x="0" y="25" font-family="Virgil, Segoe UI Emoji" font-size="28px" fill="#000000" text-anchor="start" style="white-space: pre;" direction="ltr">Tutor Freelancer</text></g><g stroke-linecap="round"><g transform="translate(1490.646897194501 1532.7557373046875) rotate(0 -639.0729782785937 -450.4272147178075)"><path d="M-5.73 0.93 C-213.39 -1.72, -1126.68 143.27, -1252.73 -16.62 C-1378.78 -176.51, -843.75 -801.34, -762.02 -958.42 M-6.56 0.37 C-214.32 -2.09, -1127.24 144.48, -1253.28 -15.61 C-1379.32 -175.71, -844.64 -803.16, -762.8 -960.19" stroke="#000000" stroke-width="1" fill="none"></path></g><g transform="translate(1490.646897194501 1532.7557373046875) rotate(0 -639.0729782785937 -450.4272147178075)"><path d="M-768.67 -929.85 C-769.41 -940.29, -763.59 -949.86, -762.1 -960.34 M-769.39 -930.51 C-768.61 -940.51, -764.72 -949.31, -763.76 -959.39" stroke="#000000" stroke-width="1" fill="none"></path></g><g transform="translate(1490.646897194501 1532.7557373046875) rotate(0 -639.0729782785937 -450.4272147178075)"><path d="M-785.62 -941.42 C-781.16 -948.42, -770.07 -954.4, -762.1 -960.34 M-786.34 -942.08 C-780.38 -948.41, -771.27 -953.65, -763.76 -959.39" stroke="#000000" stroke-width="1" fill="none"></path></g></g><mask></mask><g transform="translate(1363.77734375 998.14404296875) rotate(0 87 17.5)"><text x="0" y="25" font-family="Virgil, Segoe UI Emoji" font-size="28px" fill="#000000" text-anchor="start" style="white-space: pre;" direction="ltr">Are you a...?</text></g><g stroke-linecap="round" transform="translate(1314.80078125 1060.16748046875) rotate(0 152.583984375 37.55859375)"><path d="M18.78 0 M18.78 0 C124.39 0.27, 233.44 1.42, 286.39 0 M18.78 0 C79.26 2.13, 141.48 2.35, 286.39 0 M286.39 0 C298.17 -1.16, 304 6.1, 305.17 18.78 M286.39 0 C297.39 1.64, 303.05 4.42, 305.17 18.78 M305.17 18.78 C306 31.32, 306.24 47.35, 305.17 56.34 M305.17 18.78 C306.43 28.85, 306.41 40.41, 305.17 56.34 M305.17 56.34 C305.21 68.95, 300.4 74.8, 286.39 75.12 M305.17 56.34 C306.36 68.02, 297.22 73.13, 286.39 75.12 M286.39 75.12 C231.79 75.14, 177.24 73.58, 18.78 75.12 M286.39 75.12 C191.64 74.58, 96.64 73.66, 18.78 75.12 M18.78 75.12 C4.79 76.52, 0.48 69.08, 0 56.34 M18.78 75.12 C4.17 73.94, 1.41 69.37, 0 56.34 M0 56.34 C0.44 44.9, 0.06 36.78, 0 18.78 M0 56.34 C-0.87 47.82, -0.34 40.96, 0 18.78 M0 18.78 C0.72 7.31, 6.99 0.89, 18.78 0 M0 18.78 C-0.32 5.57, 4.32 1.7, 18.78 0" stroke="#000000" stroke-width="1" fill="none"></path></g><g stroke-linecap="round" transform="translate(1313.970703125 1160.21435546875) rotate(0 152.583984375 37.55859375)"><path d="M18.78 0 M18.78 0 C71.22 2.76, 126.31 2.17, 286.39 0 M18.78 0 C110.34 1.05, 202.56 0.84, 286.39 0 M286.39 0 C300.82 0.88, 306.96 6.66, 305.17 18.78 M286.39 0 C298.5 1.3, 305.09 5.25, 305.17 18.78 M305.17 18.78 C303.18 31.82, 304.82 43.71, 305.17 56.34 M305.17 18.78 C306.15 26.56, 305.09 36.1, 305.17 56.34 M305.17 56.34 C307.11 69.05, 298.04 75.32, 286.39 75.12 M305.17 56.34 C305.05 66.72, 296.74 76.91, 286.39 75.12 M286.39 75.12 C193.83 77.46, 99.32 78.04, 18.78 75.12 M286.39 75.12 C228.95 75.95, 170.79 76.84, 18.78 75.12 M18.78 75.12 C8.18 75.75, -1.24 69.57, 0 56.34 M18.78 75.12 C8.12 75.42, 0.51 68.42, 0 56.34 M0 56.34 C-0.62 48.25, -1.41 36.88, 0 18.78 M0 56.34 C-0.59 42.12, 0.76 27.02, 0 18.78 M0 18.78 C1 8.1, 6.06 -0.49, 18.78 0 M0 18.78 C-2.22 7.17, 6.99 0.03, 18.78 0" stroke="#000000" stroke-width="1" fill="none"></path></g><g transform="translate(1417.80078125 1078.36279296875) rotate(0 41.5 17.5)"><text x="0" y="25" font-family="Virgil, Segoe UI Emoji" font-size="28px" fill="#000000" text-anchor="start" style="white-space: pre;" direction="ltr">Tutor</text></g><g transform="translate(1410.59375 1179.19873046875) rotate(0 55 17.5)"><text x="0" y="25" font-family="Virgil, Segoe UI Emoji" font-size="28px" fill="#000000" text-anchor="start" style="white-space: pre;" direction="ltr">Student</text></g><g stroke-linecap="round" transform="translate(2274.7369399657573 893.8763043136066) rotate(0 181.9015690163128 306.0609571767037)"><path d="M32 0 M32 0 C101.3 0.39, 170 0.49, 331.8 0 M32 0 C103.43 1.45, 176.15 1.24, 331.8 0 M331.8 0 C354.11 0.82, 362.57 12.63, 363.8 32 M331.8 0 C352.32 -0.21, 364.63 10.91, 363.8 32 M363.8 32 C366.25 179.64, 364.89 327.22, 363.8 580.12 M363.8 32 C363.42 162.54, 363.52 293.17, 363.8 580.12 M363.8 580.12 C365.13 600.14, 353.43 611.98, 331.8 612.12 M363.8 580.12 C365.55 600.36, 352.64 610.52, 331.8 612.12 M331.8 612.12 C252.2 613.18, 170.32 614.12, 32 612.12 M331.8 612.12 C220.64 613.45, 109.5 613.61, 32 612.12 M32 612.12 C10.78 610.43, 0.59 602.08, 0 580.12 M32 612.12 C11.41 609.94, 2.26 600.14, 0 580.12 M0 580.12 C0.27 393.46, 1.76 205.45, 0 32 M0 580.12 C1.75 363.14, 1.43 146.85, 0 32 M0 32 C1.17 11.85, 9.09 0.7, 32 0 M0 32 C0.7 8.49, 9.86 0.63, 32 0" stroke="#000000" stroke-width="1" fill="none"></path></g><g stroke-linecap="round" transform="translate(2298.3505760672865 1011.7920685439715) rotate(0 155.85471591676992 19.766939579687914)"><path d="M9.88 0 M9.88 0 C109.75 0.31, 209.63 1.03, 301.83 0 M9.88 0 C96.84 -0.96, 183.45 -1.57, 301.83 0 M301.83 0 C307.6 -1.25, 312.73 2.5, 311.71 9.88 M301.83 0 C310.08 1.64, 309.57 1.17, 311.71 9.88 M311.71 9.88 C313.63 17.03, 311.46 23.65, 311.71 29.65 M311.71 9.88 C312.45 15.85, 310.98 21.97, 311.71 29.65 M311.71 29.65 C312.43 35.36, 307.38 40.71, 301.83 39.53 M311.71 29.65 C309.6 38.08, 306.22 39.44, 301.83 39.53 M301.83 39.53 C240.46 36.3, 179.77 36.24, 9.88 39.53 M301.83 39.53 C207.92 40.39, 113.64 39.44, 9.88 39.53 M9.88 39.53 C3.49 39.05, -1.54 36.62, 0 29.65 M9.88 39.53 C4.54 40.48, 0.79 36.66, 0 29.65 M0 29.65 C-0.17 20.17, 1.77 14.75, 0 9.88 M0 29.65 C-0.43 21.91, 0.88 15.84, 0 9.88 M0 9.88 C0.2 3.08, 4.08 -0.13, 9.88 0 M0 9.88 C0.45 2.23, 2.48 -2.1, 9.88 0" stroke="#000000" stroke-width="1" fill="none"></path></g><g transform="translate(2373.375903839758 937.1296847079384) rotate(0 74 12.5)"><text x="74" y="18" font-family="Virgil, Segoe UI Emoji" font-size="20px" fill="#000000" text-anchor="middle" style="white-space: pre;" direction="ltr">Ask a question</text></g><g transform="translate(2304.978808160217 976.4861884775928) rotate(0 33 10)"><text x="0" y="14" font-family="Virgil, Segoe UI Emoji" font-size="16px" fill="#000000" text-anchor="start" style="white-space: pre;" direction="ltr">Qn Title</text></g><g stroke-linecap="round" transform="translate(2300.3301731924407 1103.7479437514053) rotate(0 155.85471591676992 19.766939579687914)"><path d="M9.88 0 M9.88 0 C120.65 0.41, 232.61 -0.34, 301.83 0 M9.88 0 C125.77 -1.61, 242.48 -1.52, 301.83 0 M301.83 0 C308.04 -1.22, 310.52 4.74, 311.71 9.88 M301.83 0 C309.34 0.31, 313.05 2.24, 311.71 9.88 M311.71 9.88 C311.26 18.9, 310.44 24.74, 311.71 29.65 M311.71 9.88 C311.44 14.39, 311.25 18.05, 311.71 29.65 M311.71 29.65 C311.35 36.24, 307.58 38.05, 301.83 39.53 M311.71 29.65 C311.75 38.08, 307.06 40.94, 301.83 39.53 M301.83 39.53 C186.25 38.78, 72.23 38.92, 9.88 39.53 M301.83 39.53 C211.36 40.06, 121.81 39.85, 9.88 39.53 M9.88 39.53 C2.46 39.93, 1.21 35.29, 0 29.65 M9.88 39.53 C3.86 41.53, -0.2 35.42, 0 29.65 M0 29.65 C0.26 24.77, 1.64 18.18, 0 9.88 M0 29.65 C-0.11 23.96, -0.16 18.2, 0 9.88 M0 9.88 C-1.95 3.4, 3.54 -0.11, 9.88 0 M0 9.88 C-1.54 3.8, 2.84 -2.05, 9.88 0" stroke="#000000" stroke-width="1" fill="none"></path></g><g transform="translate(2306.958405285372 1068.4420636850266) rotate(0 56.5 10)"><text x="0" y="14" font-family="Virgil, Segoe UI Emoji" font-size="16px" fill="#000000" text-anchor="start" style="white-space: pre;" direction="ltr">Qn Description</text></g><g stroke-linecap="round" transform="translate(2301.5132138208546 1193.7352396496099) rotate(0 155.85471591676992 93.34045399837566)"><path d="M32 0 M32 0 C124.52 0.65, 213.95 0.37, 279.71 0 M32 0 C122.24 2.39, 212.43 1.68, 279.71 0 M279.71 0 C299.78 -0.85, 313.05 10.96, 311.71 32 M279.71 0 C299.3 -2.08, 312.07 10.19, 311.71 32 M311.71 32 C309.89 68.85, 309.59 104.73, 311.71 154.68 M311.71 32 C311.8 64.25, 312.8 98.73, 311.71 154.68 M311.71 154.68 C311.25 178.01, 300.21 187.07, 279.71 186.68 M311.71 154.68 C311.05 177.08, 299.26 186.08, 279.71 186.68 M279.71 186.68 C192.42 184.13, 101.63 183.96, 32 186.68 M279.71 186.68 C206.47 188.67, 131.2 187.87, 32 186.68 M32 186.68 C11.45 188.45, -0.51 175.39, 0 154.68 M32 186.68 C9.78 185.01, -0.67 174.88, 0 154.68 M0 154.68 C-1.02 103.84, -1.94 58.2, 0 32 M0 154.68 C-0.51 128.76, -0.47 102.81, 0 32 M0 32 C-0.39 12.51, 12.53 -1.71, 32 0 M0 32 C1.91 10.69, 11.7 1.58, 32 0" stroke="#000000" stroke-width="1" fill="none"></path></g><g transform="translate(2308.141445913786 1158.4293595832312) rotate(0 37 10)"><text x="0" y="14" font-family="Virgil, Segoe UI Emoji" font-size="16px" fill="#000000" text-anchor="start" style="white-space: pre;" direction="ltr">Qn Image</text></g><g stroke-linecap="round" transform="translate(2306.2907383218035 1417.014216522605) rotate(0 152.61042658608494 27.309730825581255)"><path d="M13.65 0 M13.65 0 C71 0.44, 129.4 1.38, 291.57 0 M13.65 0 C101.55 -0.96, 187.85 -1.01, 291.57 0 M291.57 0 C301.79 -0.6, 303.96 6.37, 305.22 13.65 M291.57 0 C299.59 0.8, 303.58 4.66, 305.22 13.65 M305.22 13.65 C304.96 18.42, 305.75 27.45, 305.22 40.96 M305.22 13.65 C304.7 24.09, 305.89 33.55, 305.22 40.96 M305.22 40.96 C306.62 51.42, 301.23 54.63, 291.57 54.62 M305.22 40.96 C305.29 49.88, 302.68 55.09, 291.57 54.62 M291.57 54.62 C196.5 52.49, 102.61 51.88, 13.65 54.62 M291.57 54.62 C231.25 53.39, 171.95 52.69, 13.65 54.62 M13.65 54.62 C4.91 56.29, -0.57 50.21, 0 40.96 M13.65 54.62 C6 56.17, -0.21 51.9, 0 40.96 M0 40.96 C1.17 34.6, -0.97 28.62, 0 13.65 M0 40.96 C0.58 33.12, 0.42 24.41, 0 13.65 M0 13.65 C1.19 4.55, 3.02 -0.18, 13.65 0 M0 13.65 C-0.05 2.83, 2.83 -1.85, 13.65 0" stroke="#000000" stroke-width="1" fill="none"></path></g><g transform="translate(2425.4011649078884 1434.3239473481863) rotate(0 33.5 10)"><text x="33.5" y="14" font-family="Virgil, Segoe UI Emoji" font-size="16px" fill="#000000" text-anchor="middle" style="white-space: pre;" direction="ltr">Post qn!</text></g><g transform="translate(2357.731231903973 849.5254833166553) rotate(0 88 12.5)"><text x="0" y="18" font-family="Virgil, Segoe UI Emoji" font-size="20px" fill="#000000" text-anchor="start" style="white-space: pre;" direction="ltr">Posting a Qn View</text></g></svg>